<svg xmlns="http://www.w3.org/2000/svg" xmlns:xlink="http://www.w3.org/1999/xlink" viewBox="0 0 65.93 60.37"><defs><style>.cls-1{fill:url(#radial-gradient);}.cls-2{fill:url(#radial-gradient-2);}.cls-3{fill:url(#radial-gradient-3);}.cls-4{fill:url(#radial-gradient-4);}.cls-5{fill:url(#radial-gradient-5);}.cls-6{fill:url(#radial-gradient-6);}.cls-7{fill:url(#radial-gradient-7);}.cls-8{fill:url(#radial-gradient-8);}.cls-9{fill:url(#radial-gradient-9);}.cls-10{fill:url(#radial-gradient-10);}</style><radialGradient id="radial-gradient" cx="545.12" cy="161.07" r="12.54" gradientTransform="translate(-321.83 -86.45) scale(0.69 0.73)" gradientUnits="userSpaceOnUse"><stop offset="0" stop-color="#d9da9e"/><stop offset="0.3" stop-color="#e9d78d"/><stop offset="0.37" stop-color="#eed688"/><stop offset="0.69" stop-color="#ebbb10"/><stop offset="1" stop-color="#c3922e"/></radialGradient><radialGradient id="radial-gradient-2" cx="559.55" cy="-138.83" r="7.8" gradientTransform="matrix(0.59, 0.37, -0.35, 0.62, -374.86, -92.89)" xlink:href="#radial-gradient"/><radialGradient id="radial-gradient-3" cx="563.06" cy="-136.42" r="8.88" gradientTransform="matrix(0.59, 0.37, -0.35, 0.62, -374.86, -92.89)" xlink:href="#radial-gradient"/><radialGradient id="radial-gradient-4" cx="566.36" cy="-136.38" r="8.61" gradientTransform="matrix(0.59, 0.37, -0.35, 0.62, -374.86, -92.89)" xlink:href="#radial-gradient"/><radialGradient id="radial-gradient-5" cx="569.66" cy="-137.36" r="7.69" gradientTransform="matrix(0.59, 0.37, -0.35, 0.62, -374.86, -92.89)" xlink:href="#radial-gradient"/><radialGradient id="radial-gradient-6" cx="572.87" cy="-138.03" r="7.2" gradientTransform="matrix(0.59, 0.37, -0.35, 0.62, -374.86, -92.89)" xlink:href="#radial-gradient"/><radialGradient id="radial-gradient-7" cx="512.25" cy="162.43" r="36.35" xlink:href="#radial-gradient"/><radialGradient id="radial-gradient-8" cx="521.29" cy="162.74" r="39.84" xlink:href="#radial-gradient"/><radialGradient id="radial-gradient-9" cx="515.34" cy="168.27" r="1.59" xlink:href="#radial-gradient"/><radialGradient id="radial-gradient-10" cx="516.29" cy="133.59" r="11.08" xlink:href="#radial-gradient"/></defs><title>Asset 3</title><g id="Layer_2" data-name="Layer 2"><g id="Layer_1-2" data-name="Layer 1"><path class="cls-1" d="M59,30.11l.11-.28c.53-.11,1-.23,1.57-.36a2.12,2.12,0,0,0,2.31.44c1.16-.31,2-1.09,1.82-1.75s-1.24-.95-2.39-.65-2,1.07-1.82,1.73c-.45.06-.91.15-1.36.23l.23-.6a16.11,16.11,0,0,0,.47-2,.24.24,0,0,0,.1.1c.53.41,1.51-.1,2.22-1.13s.82-2.17.3-2.56-1.53.11-2.23,1.13a2.42,2.42,0,0,0-.45,2.39A23.14,23.14,0,0,1,59.13,29c-.1-.58-.22-1.15-.35-1.71a2.37,2.37,0,0,0-.2-2.46c-.61-1.09-1.55-1.7-2.11-1.36S55.93,25,56.53,26s1.45,1.63,2,1.4c.12.69.23,1.37.36,2A9.12,9.12,0,0,1,58,31a10.09,10.09,0,0,1-1.3,1.54c-.13-.76-.27-1.5-.45-2.24.59-.27.72-1.4.3-2.55s-1.27-1.93-1.88-1.69-.74,1.41-.32,2.58,1.18,1.83,1.77,1.69c.08.82.2,1.63.34,2.45a7.72,7.72,0,0,1-2.15,1.44c-.22.13-.45.22-.68.33,0,.05,0,.11,0,.16l-.08-.12,0,0h.14q.11-.69.18-1.38l0,0c.57-.35.53-1.52-.06-2.59s-1.54-1.7-2.11-1.37-.54,1.51.07,2.59,1.33,1.55,1.9,1.43c-.12.48-.23,1-.32,1.45h0a14.6,14.6,0,0,1-3.74.85,21.15,21.15,0,0,1-5-.11,14.75,14.75,0,0,0,5,.62,12.55,12.55,0,0,0,4.69-1.09c.95.12,1.9.2,2.86.23-.12.59.44,1.43,1.36,2s2.14.66,2.47.06-.26-1.58-1.3-2.21-2.13-.66-2.47-.07a.31.31,0,0,0,0,.08c-.78-.16-1.57-.27-2.35-.36A9.18,9.18,0,0,0,57,33.07c.93-.07,1.84-.16,2.76-.28.11.63,1.06,1.09,2.19,1s2.14-.64,2.12-1.33-1-1.19-2.21-1.13-2.07.6-2.11,1.24c-.81,0-1.61,0-2.42.1a9.12,9.12,0,0,0,1.06-1.41A7.81,7.81,0,0,0,59,30.11Zm.2-.54s0,0,0,.07l0,0Zm-2.62,3.2h.14a.66.66,0,0,1,0,.15Z"/><path class="cls-2" d="M13.16,23.25c-1.22,1.92-2.05,3.84-4.6,4a22.75,22.75,0,0,0-3,.26A11.45,11.45,0,0,0,0,30.66c-.11.11,0,.28.15.18a11.28,11.28,0,0,1,5.07-3c1.36-.34,2.66-.19,4-.4,2.4-.38,2.84-2.15,4.09-4.11a.12.12,0,0,0-.2-.12Z"/><path class="cls-3" d="M14.81,24.67c-2.49,6-11.22,4.06-14,10.19-.06.14.13.26.2.12,2.79-6.18,11.45-4.1,14-10.19.05-.14-.14-.26-.2-.12Z"/><path class="cls-4" d="M16.27,25.63c-2,3.44-5.09,4.64-8.5,6.18a7.27,7.27,0,0,0-4.38,4.66c-.05.14.14.26.2.12,1.63-4,4.89-4.68,8.27-6.44a9.16,9.16,0,0,0,4.6-4.4c.08-.13-.12-.25-.19-.12Z"/><path class="cls-5" d="M17.46,26.42c-1.48,3.7-4,4.42-7.13,6.06-1.87,1-2.75,2.4-3.7,4.33-.06.14.13.26.2.12a8.87,8.87,0,0,1,4.41-4.57,18,18,0,0,0,3.19-1.53,9.34,9.34,0,0,0,3.25-4.34c.05-.14-.17-.21-.22-.07Z"/><path class="cls-6" d="M19.19,27.38c-1.61,3.32-4,4.35-6.75,6.23a7.44,7.44,0,0,0-3.12,3.86c-.05.14.17.21.22.06,1.12-3.28,4.07-4.08,6.55-5.83a10.06,10.06,0,0,0,3.29-4.2c.07-.14-.13-.26-.19-.12Z"/><path class="cls-7" d="M12.35,45.68A7.26,7.26,0,0,0,9.87,56.52a6.52,6.52,0,0,0,6.37,2.57A7.09,7.09,0,0,0,21.56,50L28,42.79c1.09-1.19,2.33-1.07,3.9-1.24,0,0,23.29-31,23.82-38-.18,0-30.92,41.65-34.8,44.87A6.57,6.57,0,0,0,12.35,45.68ZM12.93,47A5.24,5.24,0,0,1,20,49.78a5.74,5.74,0,0,1-2.64,7.43,5.24,5.24,0,0,1-7.07-2.78A5.73,5.73,0,0,1,12.93,47Z"/><path class="cls-8" d="M58.71,57.91a12.44,12.44,0,0,0,7,2.09l.18-.69s-5.52-.18-6.37-2.71a7.26,7.26,0,0,0-2.43-9.31,6.51,6.51,0,0,0-8.78,1.6C44.73,46.44,11,3,10.66,2.8c3.15,11.22,26,38.46,26,38.46l1.82.24a4,4,0,0,1,1.93,1.07l7.09,7.81a7.26,7.26,0,0,0,2.59,8.94A6.52,6.52,0,0,0,58.71,57.91Zm-7.91.17a5.78,5.78,0,0,1-1.74-7.71,5.21,5.21,0,0,1,7.34-1.84,5.78,5.78,0,0,1,1.75,7.71A5.21,5.21,0,0,1,50.8,58.08Z"/><path class="cls-9" d="M34.18,36.75a1.09,1.09,0,0,1-.71-.27,1.14,1.14,0,0,1-.38-.78,1.18,1.18,0,0,1,.25-.85,1.08,1.08,0,0,1,.75-.4,1,1,0,0,1,.8.27A1.17,1.17,0,0,1,35,36.34,1.06,1.06,0,0,1,34.18,36.75Zm0-1.17Z"/><path class="cls-10" d="M38.39,1.86A1.57,1.57,0,0,0,39.12.69v0l0-.05A.91.91,0,0,0,38.54.2L38,0H31.23l-.66.24V.37c.31,3.4.53,6.75.66,10s.2,6.67.2,10.27v.14l.13,0a5,5,0,0,0,1.06.1,4.95,4.95,0,0,0,4.31-2.33,10.09,10.09,0,0,0,1.48-3.39,17.36,17.36,0,0,0,.52-4.33,26.1,26.1,0,0,0-.32-3.89c-.21-1.37-.47-2.74-.78-4.07l-.05-.25C37.79,2.51,37.87,2.26,38.39,1.86Zm-2.63-.81a9.11,9.11,0,0,1,1.36.09s0,0,0,0v.15a.36.36,0,0,1,0,.1A12.12,12.12,0,0,1,35,2.87c-.77.43-1.39.77-1.84,1s-.75.39-.9.45l-.23.06V2.75a3.28,3.28,0,0,1,.13-1,1.14,1.14,0,0,1,.4-.59c.36,0,.89,0,1.57-.08S35.41,1.05,35.76,1.05Zm1.6,8.2c0,1.44,0,2.71-.15,3.77a19.56,19.56,0,0,1-.57,3.23,9.49,9.49,0,0,1-1.21,2.27,2.75,2.75,0,0,1-1.68,1.09l0,0a.49.49,0,0,1-.22.06.47.47,0,0,1-.41-.21,1.06,1.06,0,0,1-.16-.62c-.29-2.06-.49-4-.58-5.79s-.13-4-.13-6.5a6.58,6.58,0,0,1,1.56-1.23,17.25,17.25,0,0,0,1.52-1l1.53-1.08a2.85,2.85,0,0,1,.32,1c.08.47.16.93.22,1.35Z"/></g></g></svg>