<svg xmlns="http://www.w3.org/2000/svg" xmlns:xlink="http://www.w3.org/1999/xlink" viewBox="0 0 184.94 68.92"><defs><style>.cls-1{fill:url(#radial-gradient);}.cls-2{fill:url(#radial-gradient-4);}.cls-3{fill:url(#radial-gradient-5);}.cls-4{fill:url(#radial-gradient-6);}.cls-5{fill:url(#radial-gradient-7);}.cls-6{fill:url(#radial-gradient-8);}.cls-7{fill:url(#radial-gradient-9);}.cls-8{fill:url(#radial-gradient-10);}.cls-9{fill:url(#radial-gradient-11);}.cls-10{fill:url(#radial-gradient-12);}.cls-11{fill:url(#radial-gradient-13);}.cls-12{fill:url(#radial-gradient-14);}.cls-13{fill:url(#radial-gradient-15);}.cls-14{fill:url(#radial-gradient-16);}.cls-15{fill:url(#radial-gradient-17);}.cls-16{fill:url(#radial-gradient-18);}.cls-17{fill:url(#radial-gradient-19);}.cls-18{fill:url(#radial-gradient-20);}.cls-19{fill:url(#radial-gradient-21);}.cls-20{fill:url(#radial-gradient-22);}.cls-21{fill:url(#radial-gradient-23);}.cls-22{fill:url(#radial-gradient-24);}.cls-23{fill:url(#radial-gradient-25);}.cls-24{fill:url(#radial-gradient-26);}.cls-25{fill:url(#radial-gradient-28);}</style><radialGradient id="radial-gradient" cx="58.26" cy="34.33" r="7.56" gradientUnits="userSpaceOnUse"><stop offset="0" stop-color="#d9da9e"/><stop offset="0.3" stop-color="#e9d78d"/><stop offset="0.37" stop-color="#eed688"/><stop offset="0.69" stop-color="#ebbb10"/><stop offset="1" stop-color="#c3922e"/></radialGradient><radialGradient id="radial-gradient-4" cx="338.31" cy="2.89" r="5.06" gradientTransform="translate(-283.44 -142.24) rotate(30.6)" xlink:href="#radial-gradient"/><radialGradient id="radial-gradient-5" cx="340.58" cy="4.46" r="5.76" gradientTransform="translate(-283.44 -142.24) rotate(30.6)" xlink:href="#radial-gradient"/><radialGradient id="radial-gradient-6" cx="342.73" cy="4.48" r="5.59" gradientTransform="translate(-283.44 -142.24) rotate(30.6)" xlink:href="#radial-gradient"/><radialGradient id="radial-gradient-7" cx="344.87" cy="3.84" r="4.99" gradientTransform="translate(-283.44 -142.24) rotate(30.6)" xlink:href="#radial-gradient"/><radialGradient id="radial-gradient-8" cx="346.95" cy="3.41" r="4.67" gradientTransform="translate(-283.44 -142.24) rotate(30.6)" xlink:href="#radial-gradient"/><radialGradient id="radial-gradient-9" cx="88.67" cy="21.2" r="16.19" xlink:href="#radial-gradient"/><radialGradient id="radial-gradient-10" cx="107.99" cy="21.21" r="16.25" xlink:href="#radial-gradient"/><radialGradient id="radial-gradient-11" cx="128.68" cy="21.12" r="16.61" xlink:href="#radial-gradient"/><radialGradient id="radial-gradient-12" cx="152.16" cy="21.2" r="16.2" xlink:href="#radial-gradient"/><radialGradient id="radial-gradient-13" cx="172.71" cy="21.2" r="17.21" xlink:href="#radial-gradient"/><radialGradient id="radial-gradient-14" cx="85.32" cy="57.4" r="8.99" xlink:href="#radial-gradient"/><radialGradient id="radial-gradient-15" cx="97.98" cy="57.4" r="9.46" xlink:href="#radial-gradient"/><radialGradient id="radial-gradient-16" cx="106.05" cy="44.49" r="0.94" xlink:href="#radial-gradient"/><radialGradient id="radial-gradient-17" cx="106.41" cy="57.36" r="8.2" xlink:href="#radial-gradient"/><radialGradient id="radial-gradient-18" cx="114.12" cy="57.41" r="8.92" xlink:href="#radial-gradient"/><radialGradient id="radial-gradient-19" cx="132.92" cy="57.4" r="9.22" xlink:href="#radial-gradient"/><radialGradient id="radial-gradient-20" cx="143.27" cy="57.4" r="9.46" xlink:href="#radial-gradient"/><radialGradient id="radial-gradient-21" cx="155.44" cy="57.31" r="9" xlink:href="#radial-gradient"/><radialGradient id="radial-gradient-22" cx="166.28" cy="57.4" r="9.25" xlink:href="#radial-gradient"/><radialGradient id="radial-gradient-23" cx="178.41" cy="57.41" r="8.92" xlink:href="#radial-gradient"/><radialGradient id="radial-gradient-24" cx="31.34" cy="35.44" r="29.77" gradientTransform="translate(4.17) scale(0.94 1)" xlink:href="#radial-gradient"/><radialGradient id="radial-gradient-25" cx="38.75" cy="35.69" r="32.63" gradientTransform="translate(4.17) scale(0.94 1)" xlink:href="#radial-gradient"/><radialGradient id="radial-gradient-26" cx="33.87" cy="40.22" r="1.3" gradientTransform="translate(4.17) scale(0.94 1)" xlink:href="#radial-gradient"/><radialGradient id="radial-gradient-28" cx="34.65" cy="11.82" r="9.07" xlink:href="#radial-gradient"/></defs><title>Asset 2</title><g id="Layer_2" data-name="Layer 2"><g id="Layer_1-2" data-name="Layer 1"><path class="cls-1" d="M62,34.11l.1-.24c.46-.09.91-.19,1.37-.3a1.91,1.91,0,0,0,2,.37c1-.26,1.71-.91,1.58-1.46S66,31.7,65,31.94s-1.7.89-1.58,1.44c-.39,0-.79.12-1.19.19l.2-.49a11.36,11.36,0,0,0,.41-1.7.2.2,0,0,0,.09.09c.46.34,1.32-.09,1.94-.94s.72-1.81.26-2.13-1.34.09-1.94.94a1.92,1.92,0,0,0-.4,2c-.21.62-.42,1.24-.69,1.84-.09-.49-.19-1-.3-1.43a1.91,1.91,0,0,0-.18-2c-.53-.91-1.35-1.41-1.84-1.13s-.47,1.25.05,2.15,1.27,1.36,1.76,1.17c.1.57.21,1.13.32,1.69a8.6,8.6,0,0,1-.79,1.26A8,8,0,0,1,60,36.12c-.11-.63-.24-1.25-.39-1.87.51-.22.62-1.16.25-2.12s-1.11-1.6-1.63-1.4-.65,1.17-.28,2.14,1,1.53,1.54,1.41c.07.68.17,1.35.3,2a7,7,0,0,1-1.88,1.2c-.19.1-.39.18-.59.27,0,0,0,.09,0,.13l-.07-.1,0,0h.12c.05-.38.11-.77.16-1.15l0,0c.49-.29.46-1.26-.06-2.15s-1.34-1.42-1.84-1.14-.47,1.26.06,2.16,1.17,1.29,1.66,1.19c-.1.39-.2.79-.28,1.2h0a13.35,13.35,0,0,1-3.26.7,18.47,18.47,0,0,1-4.33-.09A13.31,13.31,0,0,0,53.8,39a11.53,11.53,0,0,0,4.09-.91c.83.1,1.66.17,2.51.19-.11.5.38,1.19,1.18,1.66s1.87.55,2.16.06-.23-1.31-1.13-1.84-1.87-.55-2.16-.06a.25.25,0,0,0,0,.07c-.69-.13-1.37-.22-2-.3a7.89,7.89,0,0,0,1.86-1.33c.81-.05,1.6-.13,2.41-.23.09.53.92.91,1.91.86s1.87-.54,1.85-1.11-.89-1-1.93-.94-1.81.5-1.84,1c-.71,0-1.4,0-2.11.09a7.48,7.48,0,0,0,.92-1.18A5.78,5.78,0,0,0,62,34.11Z"/><path class="cls-1" d="M62.18,33.66s0,0,0,.06l0,0Z"/><path class="cls-1" d="M59.89,36.32H60a.42.42,0,0,1,0,.12Z"/><path class="cls-2" d="M12.37,29.08c-1.15,1.71-1.93,3.44-4.33,3.61a21.73,21.73,0,0,0-2.79.24A10.89,10.89,0,0,0,0,35.71c-.1.09.05.25.15.15A10.62,10.62,0,0,1,5,33.22c1.27-.31,2.49-.17,3.76-.36,2.26-.34,2.67-1.92,3.84-3.68.08-.11-.11-.22-.18-.1Z"/><path class="cls-3" d="M13.91,30.34C11.58,35.68,3.37,34,.77,39.47c-.06.12.13.23.19.11,2.62-5.53,10.75-3.68,13.14-9.13.05-.12-.13-.23-.19-.11Z"/><path class="cls-4" d="M15.28,31.21c-1.9,3.08-4.77,4.15-8,5.52A6.65,6.65,0,0,0,3.19,40.9c0,.13.13.24.18.11C4.9,37.42,8,36.82,11.14,35.25a8.48,8.48,0,0,0,4.33-3.93.11.11,0,0,0-.19-.11Z"/><path class="cls-5" d="M16.4,31.92c-1.39,3.3-3.77,3.95-6.69,5.42a7.7,7.7,0,0,0-3.48,3.87c-.06.12.12.23.19.11a8.13,8.13,0,0,1,4.14-4.09,17.33,17.33,0,0,0,3-1.38,8.22,8.22,0,0,0,3-3.88c.05-.12-.15-.18-.21,0Z"/><path class="cls-6" d="M18,32.77c-1.51,3-3.74,3.89-6.34,5.58A6.69,6.69,0,0,0,8.76,41.8c0,.13.16.18.2.06,1-2.94,3.83-3.66,6.15-5.23a9.07,9.07,0,0,0,3.1-3.75c.06-.13-.12-.24-.18-.11Z"/><path class="cls-7" d="M96.17,3.91a3.12,3.12,0,0,0,1.54-2.36v-.1l-.06-.09A2,2,0,0,0,96.5.56L95.3.18,81.05.16,79.63.64l0,.27c.65,6.84,1.13,13.59,1.4,20.08s.41,13.43.41,20.68V42l.28.06a11.18,11.18,0,0,0,2.25.21,12,12,0,0,0,4.74-1,11.35,11.35,0,0,0,4.37-3.72,19.64,19.64,0,0,0,3.14-6.83A33.79,33.79,0,0,0,97.35,22a49.46,49.46,0,0,0-.68-7.83c-.45-2.76-1-5.52-1.66-8.2l-.1-.5C94.91,5.22,95.08,4.72,96.17,3.91ZM90.62,2.27a18.63,18.63,0,0,1,2.87.19c.05,0,.05.06.05.08v.31a.45.45,0,0,1-.05.19A26.92,26.92,0,0,1,89.08,6c-1.64.86-2.94,1.54-3.89,2s-1.58.77-1.92.89A3.25,3.25,0,0,1,82.8,9V5.7a6.09,6.09,0,0,1,.27-1.94,2.44,2.44,0,0,1,.84-1.18c.76,0,1.88-.06,3.32-.16S89.88,2.27,90.62,2.27ZM94,18.79c0,2.91-.1,5.47-.31,7.6a37.68,37.68,0,0,1-1.22,6.5,18.12,18.12,0,0,1-2.56,4.58,5.84,5.84,0,0,1-3.54,2.2l-.09,0a1,1,0,0,1-.47.12A1,1,0,0,1,85,39.4a2,2,0,0,1-.35-1.25c-.62-4.15-1-8.08-1.22-11.66s-.28-8-.28-13.1a13.25,13.25,0,0,1,3.31-2.47,31.79,31.79,0,0,0,3.19-2l3.24-2.18a5.78,5.78,0,0,1,.69,1.93c.17.95.33,1.88.46,2.72Z"/><path class="cls-8" d="M117.13,2l.09-.17-.09-.17A2.59,2.59,0,0,0,114.83.3c-.93-.06-2.1-.1-3.54-.13-1.32.17-3.38.28-6.13.33a48.36,48.36,0,0,0-5.84.34l-.3,0v.31c0,4.58,0,9.17-.08,13.65s-.09,9-.12,13.49-.06,9-.06,13.45v.34l3.24.13V12.54a18.52,18.52,0,0,1,3.4-2.23c1.3-.68,2.58-1.33,3.81-2l.24.27a89.35,89.35,0,0,1,3.29,15A131.25,131.25,0,0,1,113.67,40a2.69,2.69,0,0,0,.47,1.7,1.62,1.62,0,0,0,1.65.47l.12-.05a1.06,1.06,0,0,0,.5-.61c.06-.18.11-.41.18-.69l0-.06v-.06c-.52-5.3-1.15-11-1.87-16.95s-1.49-11.77-2.3-17.5c.81-.62,1.66-1.25,2.54-1.89A7.26,7.26,0,0,0,117.13,2Zm-4.6.55a1.19,1.19,0,0,0,.29.18,24.18,24.18,0,0,1-4,3,39.6,39.6,0,0,1-6.56,2.8A8.38,8.38,0,0,1,102,6.47a13.31,13.31,0,0,1,.38-3.28l.25-.21c1.83-.2,3.41-.32,4.7-.35S110.38,2.58,112.53,2.58Z"/><path class="cls-9" d="M138.55,18.77l.43,23-.26.09a9.35,9.35,0,0,1-1.61.32,14.74,14.74,0,0,1-1.74.1c-.65,0-1.33,0-2,0l-2-.1H130a20.09,20.09,0,0,1-3.75-.28A9.11,9.11,0,0,1,123.9,41a4.71,4.71,0,0,1-2.72-.94,7,7,0,0,1-2-2.35l0-.07a16.19,16.19,0,0,1-.58-2.72,24.72,24.72,0,0,1-.16-2.86c0-2.72.79-6.61,2.35-11.57s2.39-7.74,2.53-8.39l2.39-6.46c.88-1.77,1.76-3.51,2.66-5.28l.18-.35.33.23a1,1,0,0,0,.38,0c.81,0,1.23.1,1.42.34l.13.19-.11.2a62.2,62.2,0,0,0-4.81,11.68c-1.29,4.26-2.46,9-3.48,14.1a23.44,23.44,0,0,1-.42,3.51,22.58,22.58,0,0,0-.4,3.52,7.46,7.46,0,0,0,.31,2.27A5.67,5.67,0,0,0,123,38a8.9,8.9,0,0,0,3.24,1.45,17.54,17.54,0,0,0,4,.43c.54,0,1.37,0,2.46-.15s2-.16,2.56-.16a.41.41,0,0,0,.17-.11c.1-.07.1-.12.1-.16V2.53a5.06,5.06,0,0,1-.36-.65,1.73,1.73,0,0,1-.16-.74,1.34,1.34,0,0,1,.21-.65l.06-.12.13,0A3.16,3.16,0,0,1,136,.22a7.67,7.67,0,0,1,1.09-.06h1.5l.36.72L139,1a32.23,32.23,0,0,0-.51,3.91c-.1,1.38-.15,2.74-.15,4,0,1.48,0,3.39.13,5.7S138.55,18.37,138.55,18.77Z"/><path class="cls-10" d="M161.23.76V8.2c0,4.13-.15,7.87-.44,11.11A45,45,0,0,1,159,28.44a46.06,46.06,0,0,1-3.93,7.46,12.06,12.06,0,0,1-5.23,4.49,13.42,13.42,0,0,1-2.64,1.18,17,17,0,0,1-3.2.66h0a.84.84,0,0,1-.89-.61,1.58,1.58,0,0,1,.06-1l.08-.13a1,1,0,0,1,.72-.31h.76A16.63,16.63,0,0,0,153,33a44.64,44.64,0,0,0,4.78-12c.3-1.62.54-3.25.71-4.85a45.92,45.92,0,0,0,.26-4.85,47.6,47.6,0,0,0-.6-7.44,3.43,3.43,0,0,0-2.28-1,13.13,13.13,0,0,1-2.32-.36h-1.76a21.18,21.18,0,0,0-2.14.08,8.43,8.43,0,0,0-1.68.43.74.74,0,0,1-.68-.07c-.26-.19-.38-.56-.38-1.15A4.4,4.4,0,0,1,147,.87L147,.58h.3c1.69,0,4.13-.07,7.23-.21,3.26-.14,5.3-.21,5.83-.21h.12Z"/><path class="cls-11" d="M182.65,33.16c-1.45-5.55-2.87-11.12-4.22-16.57s-2.51-10.5-3.44-15h0A1.61,1.61,0,0,0,173.1.17H173l-.08.05a3.17,3.17,0,0,0-1.16,1.92c-.18.76-.33,1.44-.45,2.05a4,4,0,0,1-.22.81.54.54,0,0,0-.23.39.49.49,0,0,0,.06.29,95.92,95.92,0,0,0-2.87,10.23,82.58,82.58,0,0,1-2.82,10c-.58,2.32-1.32,5-2.19,7.87s-1.68,5.5-2.41,7.67l-.15.46h1.11c.32,0,.69,0,1.12-.05s.74-.07,1-.1l.22,0,.73-2.57a24.28,24.28,0,0,1,4.24-.87l4.92-.55a16.45,16.45,0,0,0,3.31.33,12.07,12.07,0,0,1,3.39.46c.19.14.44.51.56,1.44a5.25,5.25,0,0,0,.49,1.9l.05.08.08,0a1.86,1.86,0,0,0,1,.26,4.92,4.92,0,0,0,.84-.15,5.92,5.92,0,0,1,1-.12h.46ZM180,35l-14.29.2a1.7,1.7,0,0,1,0-.22c.17-.61.38-1.32.61-2.14s1.36-5,3.21-11.84c1.71-6.36,3-10.92,3.8-13.58a1.44,1.44,0,0,1,.06.38,33.54,33.54,0,0,0,1.08,4.5c.66,2.39,1.29,4.71,1.86,6.89s1.17,4.59,1.79,7.17S179.32,31.76,180,35Z"/><path class="cls-12" d="M90.71,68.24v.16l-.12.11a1.48,1.48,0,0,1-1,.28h-.44l-.26-.05h-.25l-.08-.23a3.55,3.55,0,0,1-.16-1.15c0-.21,0-.54.06-1s0-.77,0-1c.08-.66.13-1.39.17-2.2s0-1.61,0-2.35c0-1.27,0-3.22-.17-5.8s-.16-4-.16-4.63a1.45,1.45,0,0,0-1.22-.67L85,49.48c-.82.07-1.56.15-2.15.24a1.48,1.48,0,0,0-1.06.68c0,2,0,4,.1,5.92s.14,4.15.22,6.47.13,4.22.13,5.63v.17l-.13.1a1,1,0,0,1-.64.22,2,2,0,0,1-.48-.07,1.57,1.57,0,0,0-.31,0h-.2l-.34-.63v-.08q0-2.76,0-6.55t0-7.24q0-3.42,0-6.89a2.43,2.43,0,0,1-.12-.73.86.86,0,0,1,.1-.38l.07-.13.13,0a2.11,2.11,0,0,1,1.19,0l.32.09.27.08-.17,1.64,1.1.1a32.44,32.44,0,0,0,3.55,0L88.3,48a.64.64,0,0,0,.11-.42,2.05,2.05,0,0,0-.08-.5l-.14-.62-.07-.33.33-.09.49-.1.43,0a1.75,1.75,0,0,1,.78.15l.23.11,0,.26a14.51,14.51,0,0,0-.16,1.7c0,.65-.06,1.3-.06,1.93s0,1.49.06,2.81.06,2,.06,2.13c0,1.4.07,3.69.23,6.8S90.71,67.07,90.71,68.24Z"/><path class="cls-13" d="M103.5,63.81c-.78-3-1.55-6-2.27-8.93s-1.35-5.66-1.86-8.08v0a1,1,0,0,0-1.2-.88h-.09L98,46a1.86,1.86,0,0,0-.69,1.12c-.09.41-.18.79-.24,1.11a3.58,3.58,0,0,1-.1.38.43.43,0,0,0-.15.29.62.62,0,0,0,0,.18,51.88,51.88,0,0,0-1.53,5.47,47.05,47.05,0,0,1-1.51,5.39c-.32,1.24-.72,2.67-1.19,4.23s-.91,3-1.3,4.13l-.15.47H92l.61,0,.53-.06.23,0,.39-1.39a12.75,12.75,0,0,1,2.17-.44l2.62-.3a9.76,9.76,0,0,0,1.79.18,6.74,6.74,0,0,1,1.76.23,1.16,1.16,0,0,1,.22.65,2.89,2.89,0,0,0,.29,1.09l0,.08.08,0a1.17,1.17,0,0,0,.6.16,2.92,2.92,0,0,0,.48-.07,2.48,2.48,0,0,1,.52-.07h.46Zm-1.78.88-7.34.1c.09-.31.19-.66.3-1.06s.74-2.68,1.73-6.39c.79-2.94,1.41-5.16,1.85-6.63.08.35.22.94.5,1.94.36,1.3.69,2.54,1,3.71s.63,2.47,1,3.87S101.36,63,101.72,64.69Z"/><path class="cls-14" d="M106.86,45a.7.7,0,0,1-.77.36.47.47,0,0,1-.16,0,.71.71,0,0,1-.63-.36,1.44,1.44,0,0,1-.21-.72.55.55,0,0,1,.06-.39.47.47,0,0,1,.32-.24,1.07,1.07,0,0,0,.27-.09l.13,0c.8,0,1,.36,1.12.67h0A1.07,1.07,0,0,1,106.86,45Z"/><path class="cls-15" d="M107.53,68.28l0,.13a.77.77,0,0,1-.76.5h-.83l-.4-.51v-.12c0-2.33,0-4.77,0-7.25l-.12-8.38c0-3.1-.06-5.23-.06-6.37v-.15l.11-.1a1.06,1.06,0,0,1,1.06-.15,2.23,2.23,0,0,1,.43.13l.22.09V47c0,2.4,0,4.81.1,7.15s.12,4.9.2,7.64S107.53,66.7,107.53,68.28Z"/><path class="cls-16" d="M119.18,47.15l.09-.17-.09-.17A1.61,1.61,0,0,0,117.8,46c-.5,0-1.13,0-1.94-.07a30.9,30.9,0,0,1-3.27.18,26,26,0,0,0-3.18.19l-.3,0v.3c0,2.48,0,4.93,0,7.36s0,4.86-.07,7.27,0,4.84,0,7.26v.34l2.07.08V52.81a10.58,10.58,0,0,1,1.75-1.14l1.94-1,0,0a48.07,48.07,0,0,1,1.76,8,71.39,71.39,0,0,1,.5,8.78,1.58,1.58,0,0,0,.28,1,1,1,0,0,0,1,.31l.13,0a.75.75,0,0,0,.33-.42c0-.1.07-.23.1-.38l0-.06v-.07c-.28-2.83-.62-5.9-1-9.13s-.79-6.29-1.23-9.35c.41-.31.85-.63,1.3-1A4.21,4.21,0,0,0,119.18,47.15Zm-4.71,1.78a20.74,20.74,0,0,1-3.34,1.44,4.12,4.12,0,0,1-.09-.91,7.1,7.1,0,0,1,.19-1.67l0,0c1-.11,1.8-.16,2.48-.19l2.63,0A12.16,12.16,0,0,1,114.47,48.93Z"/><path class="cls-17" d="M139.07,46.54v.1a.86.86,0,0,1-.94.94h-.84a.82.82,0,0,0-.35.08,2.09,2.09,0,0,0-1.38,1c-.24.53-.63,1.56-1.13,3.06q-.36,3.81-.8,7.83a27.94,27.94,0,0,1-1.65,7.2,6.49,6.49,0,0,1-1.13,1.54,3.61,3.61,0,0,1-1.09.6l-.06,0-2.47,0a.61.61,0,0,1-.45-.62c0-.17,0-.27,0-.33v-.26l.24-.07a5,5,0,0,1,1.12-.11,2.29,2.29,0,0,0,1.15-.28,2.86,2.86,0,0,0,1.35-1.78c.23-1.12.41-2,.55-2.51a28.42,28.42,0,0,1,.25-3c.16-1.4.25-2.38.25-2.93l.9-5.3a9.47,9.47,0,0,1,2.5-4.81l.06-.06a8,8,0,0,1,1.39-.67A4.19,4.19,0,0,1,138,45.9h.69Z"/><path class="cls-18" d="M148.79,63.81c-.78-3-1.55-6-2.27-8.93s-1.35-5.66-1.85-8.08v0a1,1,0,0,0-1.19-.88h-.1l-.07.06a1.86,1.86,0,0,0-.69,1.12c-.1.41-.18.79-.24,1.11a2,2,0,0,1-.1.38.43.43,0,0,0-.15.29.62.62,0,0,0,0,.18,54.46,54.46,0,0,0-1.53,5.47,44.58,44.58,0,0,1-1.52,5.39c-.32,1.24-.71,2.67-1.18,4.23s-.91,3-1.29,4.13l-.16.47h.83l.61,0,.53-.06.22,0,.41-1.39a12.83,12.83,0,0,1,2.16-.44l2.62-.3a9.68,9.68,0,0,0,1.8.18,6.71,6.71,0,0,1,1.75.23,1.16,1.16,0,0,1,.22.65,3.1,3.1,0,0,0,.29,1.09l0,.08.07,0a1.17,1.17,0,0,0,.6.16,3.25,3.25,0,0,0,.49-.07,2.26,2.26,0,0,1,.51-.07h.46Zm-1.78.88-7.34.1c.08-.31.18-.66.3-1.06s.73-2.68,1.73-6.39c.79-2.94,1.41-5.16,1.84-6.63.08.35.23.94.51,1.94.36,1.3.69,2.54,1,3.71s.63,2.47,1,3.87S146.65,63,147,64.69Z"/><path class="cls-19" d="M160.63,67.41a2.11,2.11,0,0,1-.08.62c-.05.18-.09.33-.13.44l-.08.23-5,.22H151l-.07-.29a6.5,6.5,0,0,1-.11-1c0-.41,0-.63,0-.67,0-.35,0-.91.07-1.66s.06-1.12.06-1.18a9,9,0,0,0-.1-1.32v-.07l0-.06a4.41,4.41,0,0,0,.09-1c0-.28,0-.7-.06-1.23s-.07-.9-.07-1.09c0-1.2,0-2.41-.1-3.61s-.16-2.55-.29-4V51.5l.11-.12a.21.21,0,0,0,0-.14,1.86,1.86,0,0,0-.09-.45,1.33,1.33,0,0,1-.06-.62c0-.34,0-.85-.09-1.52s-.1-1.29-.1-1.65V45.7l.5.22a.42.42,0,0,0,.16,0,3.9,3.9,0,0,1,.64-.07.74.74,0,0,1,.76.5v.1c0,1.91.05,4.11.13,6.57s.18,5,.28,7.76.15,4.54.15,5.87a3,3,0,0,0,.72.23,7,7,0,0,0,2.13,0l1-.12,3.42-.31.12.1A1,1,0,0,1,160.63,67.41Z"/><path class="cls-20" d="M172.18,52.74a11,11,0,0,0-1.44-4.08h0a6.13,6.13,0,0,0-2.05-2.09,4.91,4.91,0,0,0-4.59-.2l-.07.05a8.58,8.58,0,0,0-3.19,5,33.32,33.32,0,0,0-.67,7.18v.08a.55.55,0,0,0-.09.45.45.45,0,0,0,.1.21,15.48,15.48,0,0,0,.65,4.25,12.14,12.14,0,0,0,2,3.91l.1.09c.51.3,1,.59,1.57.88a3.82,3.82,0,0,0,1.76.48,9.51,9.51,0,0,0,1.88-.41,4.23,4.23,0,0,0,2.63-2.7,31.66,31.66,0,0,0,1.73-6.18V58A37.27,37.27,0,0,0,172.18,52.74Zm-5.8,14.37a3.14,3.14,0,0,1-2.11-.78,10.5,10.5,0,0,1-1.61-3.83,23.57,23.57,0,0,1-.46-4.85,33.89,33.89,0,0,1,.3-4.94A11.92,11.92,0,0,1,163.69,49a3.24,3.24,0,0,1,2.8-1.42,5.63,5.63,0,0,1,.58,0,4.61,4.61,0,0,1,1.76,1.21,19.32,19.32,0,0,1,1.32,4.12,24.19,24.19,0,0,1,.41,4.57c-.09.89-.21,2.29-.36,4.25-.35,2.79-1.46,4.58-3.24,5.31A2.87,2.87,0,0,1,166.38,67.11Z"/><path class="cls-21" d="M183.55,68.38v.26l-.25.08a2.57,2.57,0,0,1-.66.13l-.89.07-.42-.66v-.1c0-1.18,0-2.75.13-4.67.07-1.74.12-2.79.12-3.21a.57.57,0,0,1-.08-.29v-.11a1,1,0,0,0,.07-.29v-.66a1,1,0,0,1,.12-.5c0-1.57,0-3-.13-4.32s-.23-2.66-.43-4.07a8.09,8.09,0,0,0-1.51-.65,10.91,10.91,0,0,1-1.76-.73l-2.36-.44-.25,0c-.06.72-.09,1.52-.09,2.39,0,1,.07,2.6.2,4.66s.19,3.63.19,4.6l.35,8.65-.22.1a2.26,2.26,0,0,1-1.54.08l-.27-.07v-.28c0-2.38,0-4.82-.15-7.26s-.2-5-.31-7.64-.16-4.93-.16-6.79v-.3l.31,0a3.8,3.8,0,0,1,.63-.07,6.06,6.06,0,0,1,1.81.36c.72.21,1.35.4,1.88.53l1.71.46c.48.14,1,.29,1.45.47a2.68,2.68,0,0,0-.07-.51l-.22-1,.05-.11a1,1,0,0,1,.81-.59,2,2,0,0,1,.59.06l.46.07.29,0v.31c0,2.31,0,4.73.14,7.19l.29,7.83C183.49,64.15,183.55,66.5,183.55,68.38Z"/><path class="cls-22" d="M11.7,51.6A8.24,8.24,0,0,0,8.93,63.84,7.24,7.24,0,0,0,16,66.75,8,8,0,0,0,22,56.48l7.14-8.14c1.22-1.35,2.6-1.21,4.35-1.4,0,0,26-35,26.59-42.92-.19,0-34.51,47-38.85,50.66A7.28,7.28,0,0,0,11.7,51.6Zm.64,1.51a5.82,5.82,0,0,1,7.89,3.12,6.51,6.51,0,0,1-2.94,8.39,5.84,5.84,0,0,1-7.9-3.13A6.5,6.5,0,0,1,12.34,53.11Z"/><path class="cls-23" d="M63.45,65.41a13.76,13.76,0,0,0,7.86,2.36L71.5,67s-6.16-.2-7.1-3.06a8.26,8.26,0,0,0-2.72-10.51,7.23,7.23,0,0,0-9.8,1.81c-4-2.77-41.68-51.83-42.07-52,3.52,12.67,29,43.42,29,43.42l2,.27A4.52,4.52,0,0,1,43,48.09l7.91,8.83A8.25,8.25,0,0,0,53.81,67,7.22,7.22,0,0,0,63.45,65.41Zm-8.83.19a6.55,6.55,0,0,1-1.94-8.7,5.77,5.77,0,0,1,8.19-2.08,6.57,6.57,0,0,1,2,8.71A5.77,5.77,0,0,1,54.62,65.6Z"/><path class="cls-24" d="M36.07,41.53a1.19,1.19,0,0,1-.8-.31,1.33,1.33,0,0,1-.43-.89,1.36,1.36,0,0,1,.29-.95,1.19,1.19,0,0,1,.83-.46,1.23,1.23,0,0,1,.9.3A1.37,1.37,0,0,1,37,41.06,1.2,1.2,0,0,1,36.07,41.53Z"/><path class="cls-24" d="M36.07,40.2h0Z"/><path class="cls-25" d="M38.86,2.13A1.76,1.76,0,0,0,39.72.81V.75l0-.05A1.08,1.08,0,0,0,39,.25L38.37,0h-8l-.79.26V.45c.37,3.83.63,7.62.79,11.25s.23,7.53.23,11.6v.16l.15,0a6.27,6.27,0,0,0,1.26.12,6.78,6.78,0,0,0,2.66-.55A6.33,6.33,0,0,0,37.14,21a11.14,11.14,0,0,0,1.76-3.83,18.88,18.88,0,0,0,.61-4.89,26.66,26.66,0,0,0-.38-4.38c-.25-1.55-.56-3.1-.92-4.6L38.15,3C38.15,2.86,38.24,2.58,38.86,2.13Zm-3.11-.92a11,11,0,0,1,1.61.11s0,0,0,0v.17a.36.36,0,0,1,0,.11,14.74,14.74,0,0,1-2.48,1.63c-.92.49-1.64.86-2.18,1.13s-.89.43-1.07.5a1.8,1.8,0,0,1-.27.07V3.13a3.39,3.39,0,0,1,.15-1.08A1.42,1.42,0,0,1,32,1.38c.43,0,1.06,0,1.87-.08S35.33,1.21,35.75,1.21Zm1.89,9.26c0,1.63-.06,3.06-.17,4.26a21.88,21.88,0,0,1-.69,3.65,10.37,10.37,0,0,1-1.43,2.56,3.27,3.27,0,0,1-2,1.23l0,0a.63.63,0,0,1-.26.07.56.56,0,0,1-.48-.24,1.14,1.14,0,0,1-.19-.7c-.35-2.33-.58-4.53-.69-6.53s-.15-4.46-.15-7.35a7.49,7.49,0,0,1,1.85-1.38,17.91,17.91,0,0,0,1.79-1.14L37,3.7a3.2,3.2,0,0,1,.39,1.08c.1.53.19,1,.26,1.52Z"/></g></g></svg>