<?xml version="1.0" encoding="utf-8"?>
<svg version="1.1" id="Layer_1" xmlns="http://www.w3.org/2000/svg" xmlns:xlink="http://www.w3.org/1999/xlink" x="0px" y="0px"
	 viewBox="0 0 184.9 68.9" style="enable-background:new 0 0 184.9 68.9;" xml:space="preserve">
<title>Asset 2</title>
<path d="M62,34.1l0.1-0.2c0.5-0.1,0.9-0.2,1.4-0.3c0.5,0.5,1.3,0.6,2,0.4c1-0.3,1.7-0.9,1.6-1.5S66,31.7,65,31.9s-1.7,0.9-1.6,1.4
	c-0.4,0-0.8,0.1-1.2,0.2l0.2-0.5c0.2-0.6,0.3-1.1,0.4-1.7l0.1,0.1c0.5,0.3,1.3-0.1,1.9-0.9s0.7-1.8,0.3-2.1s-1.3,0.1-1.9,0.9
	c-0.5,0.5-0.7,1.3-0.4,2c-0.2,0.6-0.4,1.2-0.7,1.8c-0.1-0.5-0.2-1-0.3-1.4c0.3-0.6,0.3-1.4-0.2-2c-0.5-0.9-1.3-1.4-1.8-1.1
	s-0.5,1.3,0,2.1s1.3,1.4,1.8,1.2c0.1,0.6,0.2,1.1,0.3,1.7c-0.2,0.4-0.5,0.9-0.8,1.3c-0.3,0.4-0.7,0.9-1.1,1.2
	c-0.1-0.6-0.2-1.3-0.4-1.9c0.5-0.2,0.6-1.2,0.3-2.1s-1.1-1.6-1.6-1.4s-0.7,1.2-0.3,2.1c0.4,0.9,1,1.5,1.5,1.4c0.1,0.7,0.2,1.3,0.3,2
	c-0.6,0.5-1.2,0.9-1.9,1.2c-0.2,0.1-0.4,0.2-0.6,0.3v0.1l-0.1-0.1l0,0h0.1c0-0.4,0.1-0.8,0.2-1.2l0,0c0.5-0.3,0.5-1.3-0.1-2.2
	s-1.3-1.4-1.8-1.1s-0.5,1.3,0.1,2.2s1.2,1.3,1.7,1.2c-0.1,0.4-0.2,0.8-0.3,1.2l0,0c-1.1,0.4-2.1,0.6-3.3,0.7
	c-1.4,0.1-2.9,0.1-4.3-0.1c1.4,0.4,2.9,0.6,4.3,0.5c1.4-0.1,2.8-0.4,4.1-0.9c0.8,0.1,1.7,0.2,2.5,0.2c-0.1,0.5,0.4,1.2,1.2,1.7
	s1.9,0.5,2.2,0.1s-0.2-1.3-1.1-1.8s-1.9-0.5-2.2-0.1c0,0,0,0,0,0.1c-0.7-0.1-1.4-0.2-2-0.3c0.7-0.4,1.3-0.8,1.9-1.3
	c0.8,0,1.6-0.1,2.4-0.2c0.1,0.5,0.9,0.9,1.9,0.9s1.9-0.5,1.8-1.1s-0.9-1-1.9-0.9s-1.8,0.5-1.8,1c-0.7,0-1.4,0-2.1,0.1
	c0.3-0.4,0.7-0.8,0.9-1.2C61.7,34.7,61.9,34.4,62,34.1z"/>
<path d="M62.2,33.7L62.2,33.7L62.2,33.7L62.2,33.7z"/>
<path d="M59.9,36.3L59.9,36.3L59.9,36.3L59.9,36.3z"/>
<path d="M12.4,29.1c-1.1,1.7-1.9,3.4-4.3,3.6c-0.9,0-1.9,0.1-2.8,0.2c-2,0.4-3.8,1.4-5.3,2.8c-0.1,0.1,0.1,0.3,0.2,0.2
	c1.4-1.3,3-2.2,4.8-2.6c1.3-0.3,2.5-0.2,3.8-0.4c2.3-0.3,2.7-1.9,3.8-3.7C12.7,29.1,12.5,29,12.4,29.1L12.4,29.1z"/>
<path d="M13.9,30.3C11.6,35.7,3.4,34,0.8,39.5c-0.1,0.1,0.1,0.2,0.2,0.1c2.6-5.5,10.8-3.7,13.1-9.1C14.2,30.3,14,30.2,13.9,30.3z"/>
<path d="M15.3,31.2c-1.9,3.1-4.8,4.2-8,5.5c-1.9,0.7-3.4,2.2-4.1,4.2c0,0.1,0.1,0.2,0.2,0.1c1.5-3.6,4.6-4.2,7.8-5.8
	c1.9-0.8,3.4-2.1,4.3-3.9c0-0.1,0-0.1,0-0.1C15.4,31.1,15.3,31.2,15.3,31.2z"/>
<path d="M16.4,31.9c-1.4,3.3-3.8,3.9-6.7,5.4c-1.6,0.8-2.8,2.2-3.5,3.9c-0.1,0.1,0.1,0.2,0.2,0.1c0.8-1.8,2.3-3.3,4.1-4.1
	c1-0.4,2-0.8,3-1.4c1.4-1,2.4-2.3,3-3.9C16.6,31.8,16.4,31.8,16.4,31.9L16.4,31.9z"/>
<path d="M18,32.8c-1.5,3-3.7,3.9-6.3,5.6c-1.3,0.8-2.4,2-2.9,3.5C8.8,42,9,42.1,9,42c1-2.9,3.8-3.7,6.2-5.2c1.4-0.9,2.4-2.2,3.1-3.8
	C18.3,32.8,18.1,32.6,18,32.8L18,32.8z"/>
<path d="M96.2,3.9c0.9-0.5,1.4-1.4,1.5-2.4l0,0l-0.1-0.1C97.4,1,97,0.7,96.5,0.6l-1.2-0.4H81l-1.4,0.5V1c0.7,6.8,1.2,13.5,1.4,20
	s0.4,13.4,0.4,20.7V42l0.3,0.1c0.7,0.1,1.5,0.2,2.3,0.2c1.6,0,3.2-0.3,4.7-1c1.8-0.8,3.3-2.1,4.4-3.7c1.5-2.1,2.5-4.4,3.1-6.8
	c0.8-2.8,1.1-5.8,1.1-8.7c0-2.6-0.2-5.2-0.7-7.8c-0.4-2.8-1-5.5-1.7-8.2l-0.1-0.5C94.9,5.2,95.1,4.7,96.2,3.9z M90.6,2.3
	c1,0,1.9,0.1,2.9,0.2c0.1,0,0.1,0.1,0.1,0.1v0.3c0,0.1,0,0.1-0.1,0.2c-1.4,1.1-2.8,2.1-4.4,3s-2.9,1.5-3.9,2S83.6,8.9,83.3,9
	c-0.2-0.1-0.3,0-0.5,0V5.7c0-0.7,0.1-1.3,0.3-1.9c0.2-0.5,0.4-0.9,0.8-1.2c0.8,0,1.9-0.1,3.3-0.2S89.9,2.3,90.6,2.3z M94,18.8
	c0,2.9-0.1,5.5-0.3,7.6c-0.2,2.2-0.6,4.4-1.2,6.5c-0.6,1.6-1.5,3.2-2.6,4.6c-0.9,1.1-2.1,1.9-3.5,2.2h-0.1c-0.1,0.1-0.3,0.1-0.5,0.1
	c-0.3,0-0.6-0.1-0.8-0.4c-0.3-0.4-0.4-0.8-0.3-1.3c-0.6-4.2-1-8.1-1.2-11.7s-0.3-8-0.3-13.1c1-1,2.1-1.8,3.3-2.5
	c1.1-0.6,2.2-1.3,3.2-2l3.2-2.2c0.3,0.6,0.6,1.3,0.7,1.9c0.2,0.9,0.3,1.9,0.5,2.7L94,18.8z"/>
<path d="M117.1,2l0.1-0.2l-0.1-0.2c-0.5-0.8-1.3-1.4-2.3-1.4c-0.9-0.1-2.1-0.1-3.5-0.1c-1.3,0.2-3.4,0.3-6.1,0.3
	c-2,0-3.9,0.1-5.8,0.3H99V1c0,4.6,0,9.2-0.1,13.6s-0.1,9-0.1,13.5s-0.1,9-0.1,13.4v0.3l3.2,0.1V12.5c1-0.9,2.2-1.6,3.4-2.2
	c1.3-0.7,2.6-1.3,3.8-2l0.2,0.3c1.5,4.9,2.6,9.9,3.3,15c0.7,5.4,1,10.9,0.9,16.4c0,0.6,0.1,1.2,0.5,1.7s1.1,0.6,1.7,0.5h0.1
	c0.2-0.1,0.4-0.3,0.5-0.6c0.1-0.2,0.1-0.4,0.2-0.7v-0.1v-0.1c-0.5-5.3-1.2-11-1.9-17s-1.5-11.8-2.3-17.5c0.8-0.6,1.7-1.3,2.5-1.9
	C115.9,3.7,116.6,2.9,117.1,2z M112.5,2.5c0.1,0.1,0.2,0.1,0.3,0.2c-1.2,1.1-2.6,2.1-4,3c-2.1,1.1-4.3,2.1-6.6,2.8
	c-0.2-0.7-0.3-1.4-0.3-2.1c0-1.1,0.1-2.2,0.4-3.3l0.3-0.2c1.8-0.2,3.4-0.3,4.7-0.3S110.4,2.6,112.5,2.5L112.5,2.5z"/>
<path d="M138.6,18.8l0.4,23l-0.3,0.1c-0.5,0.2-1.1,0.3-1.6,0.3c-0.6,0.1-1.2,0.1-1.7,0.1c-0.6,0-1.3,0-2,0l-2-0.1H130
	c-1.3,0-2.5-0.1-3.8-0.3c-0.8-0.2-1.6-0.5-2.3-0.9c-1,0-1.9-0.4-2.7-0.9c-0.8-0.6-1.5-1.4-2-2.3v-0.1c-0.3-0.9-0.5-1.8-0.6-2.7
	s-0.2-1.9-0.2-2.9c0-2.7,0.8-6.6,2.3-11.6s2.4-7.7,2.5-8.4l2.4-6.5c0.9-1.8,1.8-3.5,2.7-5.3l0.2-0.3l0.3,0.2c0.1,0,0.3,0,0.4,0
	c0.8,0,1.2,0.1,1.4,0.3l0.1,0.2V1c-2,3.7-3.6,7.6-4.8,11.7c-1.3,4.3-2.5,9-3.5,14.1c-0.1,1.2-0.2,2.4-0.4,3.5
	c-0.2,1.2-0.4,2.3-0.4,3.5c0,0.8,0.1,1.5,0.3,2.3c0.2,0.7,0.6,1.4,1.1,1.9c1,0.7,2.1,1.2,3.2,1.5c1.3,0.3,2.7,0.4,4,0.4
	c0.5,0,1.4,0,2.5-0.2s2-0.2,2.6-0.2c0.1,0,0.1-0.1,0.2-0.1c0.1-0.1,0.1-0.1,0.1-0.2V2.5c-0.1-0.2-0.3-0.4-0.4-0.6
	c-0.1-0.2-0.2-0.5-0.2-0.7s0.1-0.5,0.2-0.6l0.1-0.1h0.1c0.2-0.1,0.4-0.1,0.6-0.2c0.4,0,0.7-0.1,1.1-0.1h1.5l0.4,0.7l0,0.1
	c-0.2,1.3-0.4,2.6-0.5,3.9c-0.1,1.4-0.1,2.7-0.1,4c0,1.5,0,3.4,0.1,5.7S138.6,18.4,138.6,18.8z"/>
<path d="M161.2,0.8v7.4c0,4.1-0.1,7.9-0.4,11.1c-0.3,3.1-0.9,6.2-1.8,9.1c-1.1,2.6-2.4,5.1-3.9,7.5c-1.3,2-3.1,3.5-5.2,4.5
	c-0.8,0.5-1.7,0.9-2.6,1.2c-1,0.3-2.1,0.5-3.2,0.7l0,0c-0.4,0-0.8-0.2-0.9-0.6c-0.1-0.3-0.1-0.7,0.1-1l0.1-0.1
	c0.2-0.2,0.4-0.3,0.7-0.3h0.8c3.5-1.4,6.4-3.9,8.3-7.2c2.2-3.7,3.8-7.8,4.8-12c0.3-1.6,0.5-3.3,0.7-4.9s0.3-3.2,0.3-4.9
	c0-2.5-0.2-5-0.6-7.4c-0.6-0.6-1.4-1-2.3-1c-0.8-0.1-1.6-0.2-2.3-0.4H152c-0.7,0-1.4,0-2.1,0.1c-0.6,0.1-1.1,0.2-1.7,0.4
	c-0.2,0.1-0.5,0.1-0.7-0.1c-0.3-0.2-0.4-0.6-0.4-1.1c0-0.3,0-0.6,0.1-0.9V0.6h0.3c1.7,0,4.1-0.1,7.2-0.2c3.3-0.1,5.3-0.2,5.8-0.2
	h0.1L161.2,0.8z"/>
<path d="M182.6,33.2c-1.4-5.5-2.9-11.1-4.2-16.6s-2.5-10.5-3.4-15l0,0c-0.1-0.9-0.9-1.5-1.8-1.4h-0.1H173h-0.1
	c-0.6,0.5-1,1.2-1.2,1.9c-0.2,0.8-0.3,1.4-0.4,2c0,0.3-0.1,0.5-0.2,0.8c-0.1,0.1-0.2,0.2-0.2,0.4c0,0.1,0,0.2,0.1,0.3
	c-1.1,3.4-2.1,6.8-2.9,10.2c-0.7,3.4-1.7,6.7-2.8,10c-0.6,2.3-1.3,5-2.2,7.9s-1.7,5.5-2.4,7.7l-0.1,0.5h1.1c0.3,0,0.7,0,1.1,0
	s0.7-0.1,1-0.1h0.2l0.7-2.6c1.4-0.4,2.8-0.7,4.2-0.9l4.9-0.5c1.1,0.2,2.2,0.3,3.3,0.3s2.3,0.1,3.4,0.5c0.2,0.1,0.4,0.5,0.6,1.4
	c0,0.7,0.2,1.3,0.5,1.9l0.1,0.1h0.1c0.3,0.2,0.6,0.3,1,0.3c0.3,0,0.6-0.1,0.8-0.2c0.3-0.1,0.7-0.1,1-0.1h0.5L182.6,33.2z M180,35
	l-14.3,0.2c0-0.1,0-0.1,0-0.2c0.2-0.6,0.4-1.3,0.6-2.1s1.4-5,3.2-11.8c1.7-6.4,3-10.9,3.8-13.6c0,0.1,0.1,0.3,0.1,0.4
	c0.3,1.5,0.6,3,1.1,4.5c0.7,2.4,1.3,4.7,1.9,6.9s1.2,4.6,1.8,7.2S179.3,31.8,180,35z"/>
<path d="M90.7,68.2v0.2l-0.1,0.1c-0.3,0.2-0.6,0.3-1,0.3h-0.4l-0.3-0.1h-0.3l-0.1-0.2c-0.1-0.4-0.2-0.8-0.2-1.2c0-0.2,0-0.5,0.1-1
	s0-0.8,0-1c0.1-0.7,0.1-1.4,0.2-2.2s0-1.6,0-2.3c0-1.3,0-3.2-0.2-5.8s-0.2-4-0.2-4.6c-0.3-0.4-0.7-0.7-1.2-0.7l-2-0.2
	c-0.8,0.1-1.6,0.2-2.2,0.2c-0.4,0.1-0.8,0.3-1.1,0.7c0,2,0,4,0.1,5.9s0.1,4.2,0.2,6.5c0.1,2.3,0.1,4.2,0.1,5.6v0.2L82,68.7
	c-0.2,0.1-0.4,0.2-0.6,0.2s-0.3,0-0.5-0.1c-0.1,0-0.2,0-0.3,0h-0.2l-0.3-0.6v-0.1c0-1.8,0-4,0-6.5s0-4.9,0-7.2s0-4.6,0-6.9
	c0-0.3-0.1-0.5-0.1-0.8c0-0.1,0-0.3,0.1-0.4l0.1-0.1h0.1c0.4-0.1,0.8-0.1,1.2,0l0.3,0.1l0.3,0.1L81.9,48l1.1,0.1
	c1.2,0.1,2.4,0.1,3.6,0l1.7-0.1c0.1-0.1,0.1-0.3,0.1-0.4c0-0.2,0-0.3-0.1-0.5l-0.1-0.6l-0.1-0.3l0.3-0.1l0.5-0.1h0.4
	c0.3,0,0.5,0,0.8,0.2l0.2,0.1v0.3c-0.1,0.6-0.1,1.1-0.2,1.7c0,0.7-0.1,1.3-0.1,1.9s0,1.5,0.1,2.8s0.1,2,0.1,2.1
	c0,1.4,0.1,3.7,0.2,6.8C90.7,64.9,90.7,67.1,90.7,68.2z"/>
<path d="M103.5,63.8c-0.8-3-1.6-6-2.3-8.9s-1.3-5.7-1.9-8.1l0,0c-0.1-0.5-0.5-1-1.1-0.9h-0.1H98V46c-0.4,0.3-0.6,0.7-0.7,1.1
	c-0.1,0.4-0.2,0.8-0.2,1.1c0,0.1-0.1,0.3-0.1,0.4c-0.1,0.1-0.1,0.2-0.2,0.3c0,0.1,0,0.1,0,0.2c-0.6,1.8-1.1,3.6-1.5,5.5
	c-0.4,1.8-0.9,3.6-1.5,5.4c-0.3,1.2-0.7,2.7-1.2,4.2c-0.5,1.5-0.9,3-1.3,4.1l-0.2,0.5H92h0.6l0.5-0.1h0.2l0.4-1.4
	c0.7-0.2,1.4-0.4,2.2-0.4l2.6-0.3c0.6,0.1,1.2,0.2,1.8,0.2c0.6,0,1.2,0.1,1.8,0.2c0.1,0.2,0.2,0.4,0.2,0.7c0,0.4,0.1,0.7,0.3,1.1
	v0.1h0.1c0.2,0.1,0.4,0.2,0.6,0.2s0.3,0,0.5-0.1c0.2,0,0.3-0.1,0.5-0.1h0.5L103.5,63.8z M101.7,64.7l-7.3,0.1
	c0.1-0.3,0.2-0.7,0.3-1.1s0.7-2.7,1.7-6.4c0.8-2.9,1.4-5.2,1.8-6.6c0.1,0.3,0.2,0.9,0.5,1.9c0.4,1.3,0.7,2.5,1,3.7s0.6,2.5,1,3.9
	S101.4,63,101.7,64.7z"/>
<path d="M106.9,45c-0.1,0.3-0.5,0.4-0.8,0.4c-0.1,0-0.1,0-0.2,0c-0.3,0-0.5-0.1-0.6-0.4c-0.1-0.2-0.2-0.5-0.2-0.7
	c0-0.1,0-0.3,0.1-0.4c0.1-0.1,0.2-0.2,0.3-0.2c0.1,0,0.2,0,0.3-0.1h0.1c0.8,0,1,0.4,1.1,0.7l0,0C107,44.5,107,44.8,106.9,45z"/>
<path d="M107.5,68.3L107.5,68.3c-0.1,0.4-0.4,0.6-0.8,0.6h-0.8l-0.4-0.5v-0.1c0-2.3,0-4.8,0-7.3l-0.1-8.4c0-3.1-0.1-5.2-0.1-6.4V46
	l0.1-0.1c0.3-0.2,0.7-0.3,1.1-0.2c0.1,0,0.3,0.1,0.4,0.1l0.2,0.1V47c0,2.4,0,4.8,0.1,7.2s0.1,4.9,0.2,7.6
	C107.5,64.5,107.5,66.7,107.5,68.3z"/>
<path d="M119.2,47.2l0.1-0.2l-0.1-0.2c-0.3-0.5-0.8-0.8-1.4-0.8c-0.5,0-1.1,0-1.9-0.1c-1.1,0.1-2.2,0.2-3.3,0.2
	c-1.1,0-2.1,0.1-3.2,0.2h-0.3v0.3c0,2.5,0,4.9,0,7.4s0,4.9-0.1,7.3s0,4.8,0,7.3v0.3l2.1,0.1V52.8c0.5-0.4,1.1-0.8,1.8-1.1l1.9-1l0,0
	c0.8,2.6,1.4,5.3,1.8,8c0.3,2.9,0.5,5.8,0.5,8.8c0,0.4,0.1,0.7,0.3,1c0.2,0.3,0.6,0.4,1,0.3h0.1c0.2-0.1,0.3-0.2,0.3-0.4
	c0-0.1,0.1-0.2,0.1-0.4v-0.1v-0.1c-0.3-2.8-0.6-5.9-1-9.1s-0.8-6.3-1.2-9.4c0.4-0.3,0.8-0.6,1.3-1C118.5,48,118.9,47.6,119.2,47.2z
	 M114.5,48.9c-1.1,0.6-2.2,1.1-3.3,1.4c-0.1-0.3-0.1-0.6-0.1-0.9c0-0.6,0.1-1.1,0.2-1.7l0,0c1-0.1,1.8-0.2,2.5-0.2h2.6
	C115.8,48.1,115.1,48.5,114.5,48.9z"/>
<path d="M139.1,46.5L139.1,46.5c0,0.6-0.3,1-0.8,1c-0.1,0-0.1,0-0.2,0h-0.8c-0.1,0-0.2,0-0.4,0.1c-0.6,0.1-1.1,0.5-1.4,1
	c-0.2,0.5-0.6,1.6-1.1,3.1c-0.2,2.5-0.5,5.2-0.8,7.8c-0.2,2.5-0.8,4.9-1.6,7.2c-0.3,0.6-0.7,1.1-1.1,1.5c-0.3,0.3-0.7,0.5-1.1,0.6
	h-0.1h-2.5c-0.3-0.1-0.5-0.3-0.4-0.6c0-0.2,0-0.3,0-0.3v-0.3l0.2-0.1c0.4-0.1,0.7-0.1,1.1-0.1c0.4,0,0.8-0.1,1.1-0.3
	c0.7-0.4,1.2-1,1.4-1.8c0.2-1.1,0.4-2,0.6-2.5c0-1,0.1-2,0.3-3c0.2-1.4,0.3-2.4,0.3-2.9l0.9-5.3c0.3-1.8,1.2-3.5,2.5-4.8l0.1-0.1
	c0.4-0.3,0.9-0.5,1.4-0.7s1-0.3,1.5-0.3h0.7L139.1,46.5z"/>
<path d="M148.8,63.8c-0.8-3-1.6-6-2.3-8.9s-1.4-5.7-1.9-8.1l0,0c-0.1-0.5-0.5-0.9-1.1-0.9h-0.1h-0.1l-0.1,0.1
	c-0.4,0.3-0.6,0.7-0.7,1.1c-0.1,0.4-0.2,0.8-0.2,1.1c0,0.1-0.1,0.3-0.1,0.4c-0.1,0.1-0.1,0.2-0.1,0.3s0,0.1,0,0.2
	c-0.6,1.8-1.1,3.6-1.5,5.5c-0.4,1.8-0.9,3.6-1.5,5.4c-0.3,1.2-0.7,2.7-1.2,4.2c-0.5,1.5-0.9,3-1.3,4.1l-0.2,0.5h0.8h0.6l0.5-0.1h0.2
	l0.4-1.4c0.7-0.2,1.4-0.4,2.2-0.4l2.6-0.3c0.6,0.1,1.2,0.2,1.8,0.2s1.2,0.1,1.8,0.2c0.1,0.2,0.2,0.4,0.2,0.7c0,0.4,0.1,0.7,0.3,1.1
	v0.1h0.1c0.2,0.1,0.4,0.2,0.6,0.2c0.2,0,0.3,0,0.5-0.1c0.2,0,0.3-0.1,0.5-0.1h0.5L148.8,63.8z M147,64.7l-7.3,0.1
	c0.1-0.3,0.2-0.7,0.3-1.1s0.7-2.7,1.7-6.4c0.8-2.9,1.4-5.2,1.8-6.6c0.1,0.3,0.2,0.9,0.5,1.9c0.4,1.3,0.7,2.5,1,3.7s0.6,2.5,1,3.9
	S146.6,63,147,64.7L147,64.7z"/>
<path d="M160.6,67.4c0,0.2,0,0.4-0.1,0.6s-0.1,0.3-0.1,0.4l-0.1,0.2l-5,0.2H151l-0.1-0.3c-0.1-0.3-0.1-0.7-0.1-1c0-0.4,0-0.6,0-0.7
	c0-0.3,0-0.9,0.1-1.7s0.1-1.1,0.1-1.2c0-0.4,0-0.9-0.1-1.3v-0.1v-0.1c0.1-0.3,0.1-0.7,0.1-1s0-0.7-0.1-1.2s-0.1-0.9-0.1-1.1
	c0-1.2,0-2.4-0.1-3.6s-0.2-2.5-0.3-4v-0.2l0.1-0.1v-0.1c0-0.2,0-0.3-0.1-0.5s-0.1-0.4-0.1-0.6c0-0.3,0-0.8-0.1-1.5s-0.1-1.3-0.1-1.7
	v-1.3l0.5,0.2c0.1,0,0.1,0,0.2,0c0.2,0,0.4-0.1,0.6-0.1c0.3,0,0.7,0.2,0.8,0.5v0.1c0,1.9,0.1,4.1,0.1,6.6s0.2,5,0.3,7.8
	s0.1,4.5,0.1,5.9c0.2,0.1,0.5,0.2,0.7,0.2c0.7,0.1,1.4,0.1,2.1,0l1-0.1l3.4-0.3l0.1,0.1C160.5,66.7,160.6,67.1,160.6,67.4z"/>
<path d="M172.2,52.7c-0.2-1.4-0.7-2.8-1.4-4.1l0,0c-0.5-0.9-1.2-1.6-2.1-2.1c-1.4-0.8-3.1-0.9-4.6-0.2H164c-1.6,1.2-2.8,3-3.2,5
	c-0.5,2.4-0.7,4.8-0.7,7.2v0.1c-0.1,0.1-0.1,0.3-0.1,0.5c0,0.1,0,0.1,0.1,0.2c0,1.4,0.2,2.9,0.6,4.3c0.4,1.4,1.1,2.7,2,3.9l0.1,0.1
	c0.5,0.3,1,0.6,1.6,0.9c0.5,0.3,1.1,0.5,1.8,0.5c0.6-0.1,1.3-0.2,1.9-0.4c1.3-0.4,2.2-1.4,2.6-2.7c0.8-2,1.4-4.1,1.7-6.2V58
	C172.5,56.2,172.4,54.5,172.2,52.7z M166.4,67.1c-0.8,0-1.5-0.3-2.1-0.8c-0.8-1.2-1.3-2.5-1.6-3.8c-0.3-1.6-0.5-3.2-0.5-4.8
	c0-1.7,0.1-3.3,0.3-4.9c0.2-1.3,0.6-2.5,1.2-3.7c0.6-0.9,1.7-1.5,2.8-1.4c0.2,0,0.4,0,0.6,0c0.7,0.3,1.3,0.7,1.8,1.2
	c0.6,1.3,1,2.7,1.3,4.1c0.3,1.5,0.4,3,0.4,4.6c-0.1,0.9-0.2,2.3-0.4,4.3c-0.4,2.8-1.5,4.6-3.2,5.3C166.8,67.1,166.6,67.1,166.4,67.1
	L166.4,67.1z"/>
<path d="M183.6,68.4v0.3l-0.3,0.1c-0.2,0.1-0.4,0.1-0.7,0.1l-0.9,0.1l-0.4-0.7v-0.1c0-1.2,0-2.8,0.1-4.7c0.1-1.7,0.1-2.8,0.1-3.2
	c-0.1-0.1-0.1-0.2-0.1-0.3v-0.1c0-0.1,0.1-0.2,0.1-0.3v-0.7c0-0.2,0-0.3,0.1-0.5c0-1.6,0-3-0.1-4.3s-0.2-2.7-0.4-4.1
	c-0.5-0.3-1-0.5-1.5-0.7c-0.6-0.2-1.2-0.4-1.8-0.7l-2.4-0.4h-0.3c-0.1,0.7-0.1,1.5-0.1,2.4c0,1,0.1,2.6,0.2,4.7s0.2,3.6,0.2,4.6
	l0.4,8.7l-0.2,0.1c-0.5,0.2-1,0.2-1.5,0.1l-0.3-0.1v-0.3c0-2.4,0-4.8-0.1-7.3s-0.2-5-0.3-7.6s-0.2-4.9-0.2-6.8v-0.3h0.3
	c0.2,0,0.4-0.1,0.6-0.1c0.6,0,1.2,0.1,1.8,0.4c0.7,0.2,1.4,0.4,1.9,0.5l1.7,0.5c0.5,0.1,1,0.3,1.4,0.5c0-0.2,0-0.3-0.1-0.5l-0.2-1
	l0.1-0.1c0.1-0.3,0.5-0.6,0.8-0.6c0.2,0,0.4,0,0.6,0.1l0.5,0.1h0.3v0.3c0,2.3,0,4.7,0.1,7.2l0.3,7.8
	C183.5,64.2,183.6,66.5,183.6,68.4z"/>
<path d="M11.7,51.6c-4,2.1-5.6,7.1-3.5,11.1c0.2,0.4,0.4,0.8,0.7,1.1c1.6,2.2,4.4,3.4,7.1,2.9c4.3-0.9,7.1-5.1,6.2-9.5
	c-0.1-0.3-0.1-0.5-0.2-0.8l7.1-8.1c1.2-1.3,2.6-1.2,4.3-1.4c0,0,26-35,26.6-42.9c-0.2,0-34.5,47-38.8,50.7
	C19.4,51.3,15.2,49.9,11.7,51.6z M12.3,53.1c2.9-1.4,6.4-0.1,7.7,2.8c0.1,0.1,0.1,0.2,0.1,0.3c1.4,3.1,0.1,6.8-2.9,8.4
	c-2.9,1.4-6.4,0.1-7.8-2.8c0-0.1-0.1-0.2-0.1-0.3C8,58.4,9.3,54.7,12.3,53.1z"/>
<path d="M63.5,65.4c2.3,1.6,5.1,2.4,7.9,2.4l0.2-0.8c0,0-6.2-0.2-7.1-3.1c1.8-3.7,0.7-8.2-2.7-10.5c-3.2-2.1-7.5-1.3-9.8,1.8
	c-4-2.8-41.7-51.8-42.1-52c3.5,12.7,29,43.4,29,43.4l2,0.3c0.8,0.2,1.6,0.6,2.2,1.2l7.9,8.8c-1.6,3.6-0.4,7.8,2.9,10.1
	C56.9,69.1,61.1,68.4,63.5,65.4z M54.6,65.6c-2.8-1.9-3.7-5.7-1.9-8.7c1.5-2.8,5-3.8,7.8-2.3c0.1,0.1,0.2,0.1,0.4,0.2
	c2.8,1.9,3.7,5.7,2,8.7c-1.5,2.8-5,3.8-7.8,2.3C54.9,65.8,54.8,65.7,54.6,65.6z"/>
<path d="M36.1,41.5c-0.3,0-0.6-0.1-0.8-0.3c-0.3-0.2-0.4-0.5-0.4-0.9c0-0.3,0.1-0.7,0.3-1s0.5-0.4,0.8-0.5c0.3,0,0.7,0.1,0.9,0.3
	c0.5,0.5,0.6,1.3,0.1,1.8C36.8,41.4,36.4,41.5,36.1,41.5z"/>
<path d="M36.1,40.2L36.1,40.2z"/>
<path d="M38.9,2.1c0.5-0.3,0.8-0.8,0.9-1.3v0V0.7c-0.2-0.2-0.4-0.4-0.7-0.4L38.4,0h-8l-0.8,0.3v0.2c0.4,3.8,0.6,7.6,0.8,11.3
	s0.2,7.5,0.2,11.6v0.2h0.1c0.4,0.1,0.8,0.1,1.3,0.1c0.9,0,1.8-0.2,2.7-0.5c1-0.5,1.8-1.2,2.5-2c0.8-1.2,1.4-2.5,1.8-3.8
	c0.4-1.6,0.6-3.2,0.6-4.9c0-1.5-0.1-2.9-0.4-4.4c-0.3-1.6-0.6-3.1-0.9-4.6L38.2,3C38.2,2.9,38.2,2.6,38.9,2.1z M35.8,1.2
	c0.5,0,1.1,0,1.6,0.1l0,0v0.2v0.1c-0.8,0.6-1.6,1.2-2.5,1.6c-0.9,0.5-1.6,0.9-2.2,1.1s-0.9,0.4-1.1,0.5c-0.1,0-0.2,0.1-0.3,0.1V3.1
	c0-0.4,0-0.7,0.1-1.1c0.1-0.3,0.3-0.5,0.5-0.7c0.4,0,1.1,0,1.9-0.1S35.3,1.2,35.8,1.2z M37.6,10.5c0,1.6-0.1,3.1-0.2,4.3
	c-0.1,1.2-0.4,2.5-0.7,3.7c-0.4,0.9-0.8,1.8-1.4,2.6c-0.5,0.6-1.2,1.1-2,1.2l0,0c-0.1,0-0.2,0.1-0.3,0.1c-0.2,0-0.4-0.1-0.5-0.2
	c-0.1-0.2-0.2-0.5-0.2-0.7C32,19.2,31.7,17,31.6,15s-0.1-4.5-0.1-7.3c0.5-0.6,1.2-1,1.8-1.4c0.6-0.3,1.2-0.7,1.8-1.1L37,3.7
	c0.2,0.3,0.3,0.7,0.4,1.1c0.1,0.5,0.2,1,0.3,1.5L37.6,10.5z"/>
</svg>
