<svg
   role="img"
   xmlns:dc="http://purl.org/dc/elements/1.1/"
   xmlns:cc="http://creativecommons.org/ns#"
   xmlns:rdf="http://www.w3.org/1999/02/22-rdf-syntax-ns#"
   xmlns:svg="http://www.w3.org/2000/svg"
   xmlns="http://www.w3.org/2000/svg"
   viewBox="0 0 1200 400"
   height="400"
   width="1200"
   xml:space="preserve"
   id="svg2"
   version="1.1"><metadata
     id="metadata8"><rdf:RDF><cc:Work
         rdf:about=""><dc:format>image/svg+xml</dc:format><dc:type
           rdf:resource="http://purl.org/dc/dcmitype/StillImage" /></cc:Work></rdf:RDF></metadata><defs
     id="defs6" /><g
     transform="matrix(1.3333333,0,0,-1.3333333,0,400)"
     id="g10"><g
       transform="scale(0.1)"
       id="g12"><path
         id="path14"
         style="fill:#c3d543;fill-opacity:1;fill-rule:nonzero;stroke:none"
         d="m 8502.6,2459.9 c 92.4,0.2 184.9,0.2 277.4,-0.1 -0.1,-516.6 0.1,-1033.2 -0.1,-1549.8 -92.5,0 -184.9,-0.102 -277.4,0.102 0.2,516.598 0.1,1033.198 0.1,1549.798 m -3023,-98.9 c 142.2,46.5 298.4,43.8 441.1,0.7 135.5,-41 256.3,-128.4 336.4,-245.3 43.8,-62.9 75.2,-133.5 98.5,-206.3 -100.6,-0.2 -201.1,-0.3 -301.7,0.1 -43.5,86.6 -115.4,160.1 -205.1,198.2 -96.5,41.4 -210.1,42.8 -306.1,-0.9 -117.7,-53.6 -203.9,-163 -244,-284.4 -54.2,-157.9 -35.1,-339.5 52.8,-481.7 46.6,-75.1 114.2,-138.6 195.6,-174.4 104.6,-46 230.3,-39.1 329.9,16.7 76.7,41.3 137.4,108.6 176.2,186.1 99.9,0.3 199.9,0.6 299.8,-0.2 -42.2,-135.3 -121.5,-261.2 -235.2,-347.5 -147.8,-115.799 -345.1,-156.799 -529,-130.401 -167.5,24.5 -322.9,116.301 -428.2,248.401 -216.9,267.7 -227.3,679 -29,959.7 84.1,121.3 207.7,214.9 348,261.2 m 2512.2,-479.8 c 81.9,101.6 220.2,146 347.3,124.5 2.1,-90 0.2,-180 1,-270 -92.6,11.9 -201,5.8 -268.1,-67.9 -68.7,-74.5 -68.4,-182.8 -67,-277.9 0.1,-159.9 -0.1,-319.8 0.1,-479.701 -92.5,-0.301 -185,-0.301 -277.5,-0.097 -0.3,358.298 -0.1,716.598 -0.1,1074.798 88.3,0.1 176.6,0.2 265,0 0,-34.5 0.2,-69.1 -0.7,-103.7 M 6515,1984.9 c 93.2,0.2 186.5,0 279.8,0.1 0.4,-211.7 0.1,-423.5 0.1,-635.2 0.1,-67.7 27.7,-140.7 88.4,-176.2 89.6,-50 217.8,-30.3 278.3,56.1 24.3,35 39.1,77.2 38.4,120 0,211.8 0,423.5 0,635.2 93.3,0.1 186.7,0.2 280,0 -0.1,-358.3 0.1,-716.6 -0.1,-1074.798 -89.1,-0.102 -178.3,-0.204 -267.4,0 0.1,30.199 0,60.296 0.3,90.498 -67.9,-71.1 -163,-117.6 -262.3,-115.901 -115.2,-5 -233.8,37.602 -312.5,123.401 -86.1,91.2 -121.2,219.4 -122.2,342.4 -1.8,211.5 -0.3,422.9 -0.8,634.4" /><path
         id="path16"
         style="fill:#272526;fill-opacity:1;fill-rule:nonzero;stroke:none"
         d="m 210.102,2357.5 c 187.097,-0.4 374.199,0.7 561.296,-0.5 156.102,-3.5 315.602,-56.2 428.102,-167.5 117,-111.6 176.3,-271 194.5,-429 18.6,-179.7 1.9,-368.9 -83.3,-531 C 1246.2,1107.9 1140,1007.9 1011.3,957.398 938.102,927.898 859.398,912.102 780.5,910 c -190.199,0 -380.301,0 -570.5,0 0,482.5 -0.102,965 0.102,1447.5 m 277.398,-260 c 0,-310 0,-620 0.102,-930 94.5,0.4 189,-0.8 283.5,0.6 97.796,3.3 197.199,44.1 256.798,124.1 80.8,107.5 98.5,248 94.4,378.9 -4.7,112.2 -28.3,231.2 -103.8,318.5 -63.398,74 -162.801,108.1 -258.398,108 -90.801,-0.2 -181.704,-0.1 -272.602,-0.1 M 1863.7,1965 c 119.8,54.3 259.3,59.1 384.9,22.6 136.4,-39.1 253.5,-138.6 315,-266.3 59,-118.1 72.3,-253.7 60.8,-383.9 -270.7,0 -541.3,0.3 -812,-0.1 23.6,-83 82.1,-158.5 164.3,-189.6 116.2,-47.9 268.1,-8.5 331,104.8 98.9,-0.1 197.8,0.4 296.7,-0.2 -37.3,-133.6 -131.1,-250.7 -256.7,-310.902 -136.2,-64.699 -298.5,-76 -441.7,-28.398 -143.7,48.602 -264.3,159.7 -326,298.1 -59.3,130.3 -66.4,283.3 -19.9,418.7 48.7,147.5 161.4,272.5 303.6,335.2 m 77.1,-236.6 c -60.8,-35.8 -102.1,-97.4 -124.5,-163.3 177.3,-0.3 354.6,0.1 531.9,-0.2 -15.6,52.5 -43.4,102.6 -86,137.7 -87.5,74.5 -223.4,86.8 -321.4,25.8 m 2058.9,202.4 c 128,77.6 284.2,90.8 430.2,73.6 93,-12 187.1,-43.8 256.2,-109.6 68.1,-65.3 103.8,-160.8 101.6,-254.5 -0.5,-173.3 0.1,-346.7 -0.3,-520.1 -1,-71.2 10.4,-142.598 32.8,-210.2 -85.7,0.102 -171.4,-0.102 -257,0.102 -11.6,30.699 -20.1,62.597 -25.2,94.998 -76.6,-75.6 -184.1,-111.401 -290.1,-116.1 -127.9,-7 -264.7,19.5 -365.8,102.5 -76.1,61.8 -116.6,161.6 -109.9,258.9 -2.2,92.2 45.3,184.6 126,230.8 131.3,79.4 289.8,74.9 436.7,96.4 55.5,10.2 117.2,17.5 160.9,56.7 32.2,27.5 28.3,81.7 -4.8,106.9 -53.2,43.2 -126.4,48.5 -192.3,45.8 -86.1,-5.8 -181.7,-47.2 -211.4,-134.8 -92.5,0.7 -184.9,0.1 -277.4,0.4 15,116.3 89.5,219.4 189.8,278.2 m 219,-580.8 c -50.2,-8.8 -105.3,-18.2 -143.2,-55.3 -32.2,-30.2 -31.8,-87.7 2.7,-116.1 55.5,-46.1 132.8,-46.2 201.2,-42.6 79.6,6.2 168.4,26.9 219.6,93.7 41.8,55.9 28.9,129.4 31,194.4 -94.4,-54.4 -206,-59 -311.3,-74.1 m -1602.5,634.9 c 97.1,0.1 194.1,0.5 291.2,-0.2 89.3,-265.8 178,-531.7 266.5,-797.7 88.3,266.4 178.6,532.1 268.3,798.1 95.6,-0.3 191.3,0.4 287,-0.4 -135.1,-358.3 -270.6,-716.3 -405.5,-1074.598 -100,-0.204 -200,-0.102 -300,0 C 2888,1268.4 2751.5,1626.4 2616.2,1984.9 M 1654.9,807.398 c 303.4,0.301 606.7,0 910.1,0.102 0.1,-85.801 0,-171.602 0,-257.5 -303.3,0 -606.7,0 -910,0 -0.1,85.801 0.1,171.602 -0.1,257.398" /></g></g></svg>