<svg xmlns="http://www.w3.org/2000/svg" role="img" aria-label="Kevin Murphy" viewBox="0 0 497.976 80.996"><g fill="black"><path d="M28.496 48.485v16.039h-8.997V17.543h8.997v18.955l17.667-18.955h12.322L39.392 37.179l19.903 27.346H47.65L33.099 43.684l-4.603 4.801zM98.199 64.524H63.411V17.543h34.321v8.334H72.348v10.011h21.657v8.333H72.348v11.977h25.851v8.326zM127.158 64.524h-9.61l-15.434-46.981h9.478l10.76 36.221 10.692-36.221h9.484l-15.37 46.981zM155.882 64.524h-8.929V17.543h8.929v46.981zM201.464 64.524H190.7l-19.164-33.437v33.437h-8.934V17.543h10.77l19.081 33.448V17.543h9.011v46.981zM217.506 54.983h-9.618v9.541h9.618v-9.541zM270.173 64.524h-8.798V30.07l-9.547 34.454h-9.544l-9.547-34.454v34.454h-8.806V17.543h13.276l9.812 35.213 9.818-35.213h13.335v46.981zM313.628 45.911c0 11.979-6.293 19.432-18.141 19.432-11.844 0-18.07-7.453-18.07-19.432V17.543h8.931v28.645c0 6.969 3.05 10.492 9.14 10.492 6.091 0 9.137-3.523 9.137-10.492V17.543h9.004v28.368zM329.739 38.335V25.878h12.522c7.176 0 7.176 4.603 7.176 6.157 0 5.819-5.819 6.3-6.97 6.3h-12.728zm27.221 20.509V52.28c0-4.94-1.833-8.185-5.149-10.021 4.065-1.899 6.566-5.342 6.566-10.691 0-8.812-6.295-14.024-16.115-14.024h-21.46v46.981h8.938V46.391h12.192c4.198 0 6.093 1.826 6.093 5.819v7.174c0 2.168.405 3.854.936 5.141h9.073c-.538-1.357-1.074-3.985-1.074-5.681zM384.646 25.878c4.122 0 6.628 2.098 6.628 6.83 0 4.749-2.506 6.843-6.628 6.843H373.88V25.878h10.766zm15.566 6.83c0-9.206-5.689-15.164-15.506-15.164h-19.757v46.981h8.931v-16.79h11.031c9.279 0 15.301-6.285 15.301-15.027zM443.199 64.524h-8.941V44.7H414.23v19.824h-9.017V17.543h9.017V36.37h20.028V17.543h8.941v46.981zM471.218 64.524h-9V46.521l-15.774-28.977h10.091l10.157 20.112 10.216-20.112h10.088l-15.777 28.977v18.003z"></path></g></svg>