<svg id="schwarzkopf_logo" role="img" data-name="schwarzkopf logo" xmlns="http://www.w3.org/2000/svg" viewBox="0 0 283.46 142.27"><defs><style>.cls-1{fill:black;}</style></defs><title>Schwarzkopf Logo</title><path class="cls-1" d="M162.08,29.11c0.11-2.36-.05-4.92.78-7a12.25,12.25,0,0,0-.53-7.07,12.49,12.49,0,0,0-3-7.64c-1.74-2.42-4.62-2.76-6.8-4.53-2-1.78-4.75-2-7.48-1.89A24.4,24.4,0,0,1,140.1.22a13.47,13.47,0,0,0-7.29.78c-1.76.34-3.65,0.37-5.2,1.2-2,1.08-4.36,1.72-5.78,3.78-1.11,1.34-2.53,2.39-2.83,4.12-0.25,2.11.07,4.23,1.86,5.59,0.52,0.58,1.49.58,1.7,1.36a22.17,22.17,0,0,1-1.45,4.12c-0.92,1.56,1.42,2.44.56,4.06L118.4,31a5.93,5.93,0,0,0-.89,2.64c0.39,1.61,2.31,1,3.3,2,0.68,0.89-.39,1.55-0.44,2.36-0.22.67,0.92,1,.44,1.67-0.63,1,.5,1.78.81,2.67,0.11,1.3-.72,2.72.3,3.78,2.51,1.78,6.4.39,9,1.69,1.37,1,1.06,2.84,1.06,4.31-0.75,6.31-3.81,11.73-7.7,16.68a2.29,2.29,0,0,0-.48,2.11,2.87,2.87,0,0,0,2,0c7.2-2.45,12.79-8.68,19.76-11.6,2.7-1.3,5.75-1.78,8.73-2.44,0.72-.55.33-1.56,0.14-2.31-1.44-3.83-3.12-7.67-2.83-12.07,0-1.58,1.8-2,2.92-2.55,1.86-.5,3.09-2.42,3.87-4,1.56-2.09,3.41-4.09,3.67-6.76h0ZM45.15,103.23a20.83,20.83,0,0,1-4.92.53c-3.25,0-5.14-.84-6.84-3A12.25,12.25,0,0,1,31,93.11c0-6.26,3.59-10.92,8.48-10.92l1.05,0,2.2,4.82h3.05V81.49a19,19,0,0,0-6.19-1.2c-8.06,0-13.46,5.61-13.46,14,0,7.37,4.34,12.62,10.54,12.62a21.23,21.23,0,0,0,6.22-1.11l2.53-.84,0.5-.17-0.28-1.73-0.49.11h0ZM72.22,88.47c0-5.18-2.69-8.45-6.94-8.45-1.72,0-4.09.78-7.78,2.56l-0.67.28V65L47.9,67.17v1.16L52,69.78v33.39l-3.84,1.89v1.37H60.61v-1.37l-3.79-1.89v-19a18.4,18.4,0,0,1,4.62-.67c4.31,0,6,1.84,6,6.17v13.46l-3.84,1.89v1.37H76.23v-1.37l-4-1.89V88.47h0Zm31.42-6.54,3.69,1.75-5.25,16.18V99.64a23.6,23.6,0,0,0-.86-2.73l-5-16.34H94.31l-6.68,19.6-0.17-.81L87,97.84l-0.44-1.51L82.37,83.24,86,81.93V80.58H74.29v1.36l2.95,1.51L85.35,107h2.39L94,88.77,99.75,107H102l8.68-23.27,2.94-1.75V80.58h-10v1.36h0ZM132.06,101V86.68c0-4.28-2.37-6.39-7.28-6.39a28.26,28.26,0,0,0-8.7,1.86v4.9h3l2.12-4.48a5.61,5.61,0,0,1,1.33-.11c3.81,0,5,1.09,5,4.42v5.84A66.89,66.89,0,0,0,119.12,94c-3.44.83-5.3,2.95-5.3,6.17,0,3.84,2.8,6.56,6.86,6.56a6.92,6.92,0,0,0,2.45-.39l2.26-1,1.69-.86,0.59-.33c0.34,1.78,1.17,2.62,2.67,2.62h0.19a9.9,9.9,0,0,0,2.12-.39l3.62-1.31v-1.14l-2.81-.84c-1.28-.44-1.39-0.67-1.39-2h0Zm-4.51,2-0.42.08a8.67,8.67,0,0,1-1.61.39,7,7,0,0,1-1.89.22c-3,0-4.82-1.69-4.82-4.34,0-2.22,1.06-3.47,3.45-4.11a37.16,37.16,0,0,1,5.28-1V103h0ZM147.1,83l-0.34.17V79.79l-8.84,2.28v1.26l3.92,1.3v18.54l-3.92,1.89v1.37h13.93v-1.37l-5.09-1.89V84.63a9.73,9.73,0,0,1,3.64-.8l1.25,0,1.5,3.18h3.44v-6a4.51,4.51,0,0,0-2.53-.8c-1.42,0-3.67.91-7,2.75h0Zm12.48,4.8h1.7L163.75,83h8.65l-14,21.66v1.78h19.85V98.37h-1.55L174,104l-9.62,0L178.41,82.3V80.58H159.58v7.28h0Zm35.75,3,7-7.25,4.89-1.67v-1.3H195.61v1.3l3.31,1.39-8.86,9.15,10.43,14H208v-1.37l-3.61-1.55-9.06-12.7h0ZM189.8,65l-9.12,2.17v1.16L185,69.78v33.39l-4.09,1.89v1.37h13v-1.37l-4.05-1.89V65h0Zm88.58,1.5c-6.9,0-11.57,4.06-11.57,10.34v3.73h-4V83h3.86v20.18l-3.86,1.89v1.37h14v-1.37l-5.14-1.89V83H279V80.58h-7.34V76c0-2.92.52-4.78,1.94-5.9a7.44,7.44,0,0,1,4.53-1.58l0.72,0.06,1.39,3.31h3.26V67.31a13.94,13.94,0,0,0-5.09-.81h0ZM221.07,80c-7.13,0-12.75,5.7-12.75,14.07,0,7.73,5.45,13.15,12.07,13.15,7.05,0,12.93-5.94,12.93-14.12,0-7.78-5.43-13.1-12.24-13.1h0Zm0,24.79c-4.37,0-7-4.28-7-11.53,0-6.87,2.42-10.82,6.5-10.82,4.42,0,7,4.39,7,11.9,0,6.59-2.39,10.45-6.48,10.45h0ZM16,86.33l-5.42-3.87c-3.64-2.5-5.28-3.7-5.28-6.34,0-3.81,3.36-5.59,8.53-5.59a25,25,0,0,1,2.59.17l0.41,0.05,2.47,7h1.92v-8.2l-0.78-.2-2.12-.5a20.52,20.52,0,0,0-2.72-.53c-1.48-.17-3-0.33-3.9-0.33C5.79,68,.94,72,0.94,78.1A8.27,8.27,0,0,0,2.2,82.77c0.94,1.73,2.41,2.62,5.12,4.5L12.87,91c3.64,2.61,5.09,4.12,5.09,7,0,4-3.43,6.17-8.27,6.17a21.05,21.05,0,0,1-3.78-.31L3.39,96.67H1.56v8.49l0.49,0.17,2.89,0.75a26.92,26.92,0,0,0,6.26.91c6.7,0,11.89-4.08,11.89-10.51a9.93,9.93,0,0,0-1.75-5.59c-1-1.61-2.06-2.17-5.37-4.56h0Zm234.81-6c-1.5,0-4.48,1.09-7.37,2.75V79.71l-8.92,2.22v1.22l4,1.39v32.78l-4,1.66v1.36h14V119l-4.9-1.66v-11a8.33,8.33,0,0,0,2.79.42A14.39,14.39,0,0,0,261,92.19c0-6.75-4.89-11.9-10.2-11.9h0Zm-4,24c-1,0-2.22-.05-3.29-0.17V84.35a13.25,13.25,0,0,1,4.74-.8c4.78,0,8,4.06,8,10.18,0,6.64-3.5,10.53-9.45,10.53h0Z"/><path class="cls-1" d="M5.45,122.42L4,135.72l2.25,0.67L6.17,137H0l0.07-.58,2.09-.67,1.43-12.89-1.93-.67,0.07-.55h5.5c2,0,2.62.21,3.47,1a3.59,3.59,0,0,1,1.15,2.76A4.58,4.58,0,0,1,7,130c-0.53,0-1,0-1.43-.07l0.09-.76a4,4,0,0,0,.51,0,3.21,3.21,0,0,0,2.65-.94,4.59,4.59,0,0,0,1-3c0-2-.92-2.83-3-2.83H5.45Z"/><path class="cls-1" d="M16.43,130.87L15.73,137H14l1-9.16a0.25,0.25,0,0,0,0-.12,0.42,0.42,0,0,0-.14-0.32l-0.11-.14-1.79,2-0.37-.32c0.74-1.75,2.09-3,3.27-3a0.84,0.84,0,0,1,1,.88,3.07,3.07,0,0,1,0,.44l-0.34,2.9,0.25-.41c1.73-2.85,2.67-3.8,3.87-3.8a0.88,0.88,0,0,1,1.08.81,2.11,2.11,0,0,1-.46,1.1,1.08,1.08,0,0,1-.9.51,1.74,1.74,0,0,1-1.1-.55A28,28,0,0,0,16.43,130.87Z"/><path class="cls-1" d="M22.28,131.6c0.41-3.43,2.58-5.87,5.22-5.87,2.23,0,3.57,1.73,3.57,4.62,0,3.89-2.35,6.95-5.34,6.95-2.19,0-3.5-1.77-3.5-4.69A7.57,7.57,0,0,1,22.28,131.6Zm1.93,2.65c0.11,1.45.76,2.25,1.79,2.25s2-.92,2.55-2.74a13.54,13.54,0,0,0,.6-3.8c0-2.25-.64-3.43-1.86-3.43-1.89,0-3.13,2.69-3.13,6.7A7.48,7.48,0,0,0,24.21,134.25Z"/><path class="cls-1" d="M36.4,126.89l-0.8,8.24c-0.28,2.83-.6,4-1.45,5.13a4.4,4.4,0,0,1-3.54,1.86c-0.94,0-1.43-.37-1.43-1.06a1.24,1.24,0,0,1,1.13-1.24,1.88,1.88,0,0,1,1.43,1.29c1.17-.64,1.75-1.73,1.93-3.66l1-10.56h-2l0.09-.92h2l0.14-1.5a3.6,3.6,0,0,1,1.43-2.85,5.5,5.5,0,0,1,3.11-.92c1.36,0,2.09.41,2.09,1.15A1.18,1.18,0,0,1,40.41,123a1.45,1.45,0,0,1-1.13-.64l-0.41-.6-0.16-.21c-1.36.14-1.89,0.85-2.07,2.85L36.47,126h2.88l-0.09.92H36.4Z"/><path class="cls-1" d="M46.19,134.37l0.41,0.53c-1.45,1.52-2.81,2.3-4,2.3-1.86,0-3-1.5-3-4,0-4,2.53-7.34,5.61-7.34a1.88,1.88,0,0,1,2.07,1.93,3.06,3.06,0,0,1-1.66,2.71,9.89,9.89,0,0,1-4.07.94c0,0.51,0,.71,0,1,0,2.23.6,3.38,1.75,3.38A5.54,5.54,0,0,0,46.19,134.37Zm-4.56-3.54a7.35,7.35,0,0,0,2.74-.76A2.33,2.33,0,0,0,45.46,128a1.07,1.07,0,0,0-1.13-1.22C42.92,126.77,41.89,128.34,41.64,130.82Z"/><path class="cls-1" d="M52.93,126.61h0a1.66,1.66,0,0,0-1.79,1.54,2.14,2.14,0,0,0,.78,1.43l1.77,1.66A3.1,3.1,0,0,1,55,133.72c0,2-1.63,3.47-4,3.47-1.54,0-2.65-.58-2.65-1.36a1.13,1.13,0,0,1,1.1-1.06c0.6,0,.9.28,1.73,1.5h0.18a1.83,1.83,0,0,0,2-1.8,2.09,2.09,0,0,0-.94-1.66l-2-1.84a3,3,0,0,1-1-2.16c0-1.75,1.68-3.08,3.91-3.08,1.4,0,2.32.51,2.32,1.24a1.25,1.25,0,0,1-1.2,1.17c-0.57,0-.8-0.23-1.43-1.31Z"/><path class="cls-1" d="M61.42,126.61h0a1.65,1.65,0,0,0-1.79,1.54,2.13,2.13,0,0,0,.78,1.43l1.77,1.66a3.11,3.11,0,0,1,1.31,2.49c0,2-1.63,3.47-4,3.47-1.54,0-2.65-.58-2.65-1.36a1.13,1.13,0,0,1,1.1-1.06c0.6,0,.9.28,1.73,1.5h0.18a1.83,1.83,0,0,0,2-1.8,2.09,2.09,0,0,0-.94-1.66L59,131a3,3,0,0,1-1-2.16c0-1.75,1.68-3.08,3.91-3.08,1.4,0,2.32.51,2.32,1.24a1.25,1.25,0,0,1-1.2,1.17c-0.57,0-.81-0.23-1.43-1.31Z"/><path class="cls-1" d="M68.07,127.16l-1.77,1.91-0.39-.32c0.87-1.82,2.19-3,3.36-3a0.8,0.8,0,0,1,.92.92,3.1,3.1,0,0,1,0,.44L69,135.31v0.09a0.52,0.52,0,0,0,.14.37l0.12,0.12L71,134l0.39,0.34c-0.85,1.77-2.21,3-3.34,3a0.82,0.82,0,0,1-.94-0.9,4.6,4.6,0,0,1,0-.53l1.15-8.15v-0.11a0.34,0.34,0,0,0-.14-0.3ZM70,121.73a0.87,0.87,0,0,1,.94,1,1.31,1.31,0,0,1-1.29,1.54,0.87,0.87,0,0,1-.94-1A1.36,1.36,0,0,1,70,121.73Z"/><path class="cls-1" d="M73.37,131.6c0.41-3.43,2.58-5.87,5.22-5.87,2.23,0,3.57,1.73,3.57,4.62,0,3.89-2.35,6.95-5.34,6.95-2.19,0-3.5-1.77-3.5-4.69A7.5,7.5,0,0,1,73.37,131.6Zm1.93,2.65c0.12,1.45.76,2.25,1.79,2.25s2-.92,2.55-2.74a13.54,13.54,0,0,0,.6-3.8c0-2.25-.64-3.43-1.86-3.43-1.89,0-3.13,2.69-3.13,6.7A7.56,7.56,0,0,0,75.31,134.25Z"/><path class="cls-1" d="M87.66,130.09L86.81,137h-1.7l1.13-9.18v-0.09a0.47,0.47,0,0,0-.14-0.34L86,127.21l-1.77,1.93-0.39-.3c0.85-1.82,2.16-3,3.36-3a0.8,0.8,0,0,1,.87.88,2.43,2.43,0,0,1,0,.39l-0.28,2.3c1.68-2.44,3.11-3.57,4.56-3.57a1.18,1.18,0,0,1,1.38,1.2c0,0.12,0,.25,0,0.37l-1,7.87a0.21,0.21,0,0,0,0,.12,0.33,0.33,0,0,0,.12.28l0.14,0.14,1.77-1.89L95,134.27c-0.83,1.75-2.19,2.92-3.36,2.92a0.8,0.8,0,0,1-.92-0.81,3.72,3.72,0,0,1,0-.48l1.06-8a0.72,0.72,0,0,0,0-.23,0.36,0.36,0,0,0-.39-0.41,2.67,2.67,0,0,0-1.38.76l-1.2,1-1,.9Z"/><path class="cls-1" d="M106.2,126.15L105,135.29v0.21a0.27,0.27,0,0,0,.16.25l0.12,0.11,1.79-1.93,0.37,0.35a6.84,6.84,0,0,1-1.89,2.37,2.32,2.32,0,0,1-1.5.55,0.81,0.81,0,0,1-1-.81,3.14,3.14,0,0,1,0-.41l0.28-2.19-0.23.3a11.35,11.35,0,0,1-2,2.19,3.24,3.24,0,0,1-2,.92c-1.31,0-2.07-1.24-2.07-3.41,0-4.65,2.81-7.94,6.76-7.94A12.52,12.52,0,0,1,106.2,126.15Zm-2,.87a3.72,3.72,0,0,0-1.38-.25c-1.54,0-2.67,1-3.24,2.81a16.07,16.07,0,0,0-.6,4.3c0,1.38.18,1.93,0.71,1.93,0.37,0,.51-0.09,2.07-1.31,1-.81,1.13-0.9,1.63-1.31Z"/><path class="cls-1" d="M111.6,135.86l1.77-2,0.39,0.34c-0.87,1.84-2.21,3.06-3.38,3.06a0.84,0.84,0,0,1-.9-1,2,2,0,0,1,0-.37l1.66-13.53-2.48-.32,0.07-.53,4.37-.85-1.8,14.52v0.14a0.51,0.51,0,0,0,.14.35Z"/><path class="cls-1" d="M124.65,129.53L124,135.72l1.77,0.67-0.07.58H120l0.07-.58,2.12-.67,1.38-12.89-1.91-.67,0.07-.55h5.73l-0.07.55-2,.67-0.62,5.78h6.7l0.62-5.78-1.89-.67,0.07-.55h5.82l0,0.55-2.12.67-1.4,12.89,1.91,0.67-0.07.58H128.5l0.07-.58,2.12-.67,0.67-6.19h-6.7Z"/><path class="cls-1" d="M145.3,126.15l-1.22,9.13v0.21a0.27,0.27,0,0,0,.16.25l0.12,0.11,1.79-1.93,0.37,0.35a6.85,6.85,0,0,1-1.89,2.37,2.31,2.31,0,0,1-1.49.55,0.81,0.81,0,0,1-1-.81,3.32,3.32,0,0,1,0-.41l0.28-2.19-0.23.3a11.35,11.35,0,0,1-2,2.19,3.24,3.24,0,0,1-2,.92c-1.31,0-2.07-1.24-2.07-3.41,0-4.65,2.81-7.94,6.76-7.94A12.5,12.5,0,0,1,145.3,126.15Zm-2,.87a3.73,3.73,0,0,0-1.38-.25c-1.54,0-2.67,1-3.24,2.81a16.07,16.07,0,0,0-.6,4.3c0,1.38.18,1.93,0.71,1.93,0.37,0,.51-0.09,2.07-1.31,1-.81,1.13-0.9,1.63-1.31Z"/><path class="cls-1" d="M149.87,127.16l-1.77,1.91-0.39-.32c0.87-1.82,2.19-3,3.36-3a0.8,0.8,0,0,1,.92.92,3.39,3.39,0,0,1,0,.44l-1.15,8.21v0.09a0.52,0.52,0,0,0,.14.37l0.12,0.12,1.79-1.93,0.39,0.34c-0.85,1.77-2.21,3-3.34,3a0.82,0.82,0,0,1-.94-0.9,4.59,4.59,0,0,1,0-.53l1.15-8.15v-0.11a0.34,0.34,0,0,0-.14-0.3Zm1.93-5.43a0.87,0.87,0,0,1,.94,1,1.32,1.32,0,0,1-1.29,1.54,0.87,0.87,0,0,1-.94-1A1.36,1.36,0,0,1,151.8,121.73Z"/><path class="cls-1" d="M158.29,130.87L157.6,137h-1.7l1-9.16a0.25,0.25,0,0,0,0-.12,0.42,0.42,0,0,0-.14-0.32l-0.12-.14-1.79,2-0.37-.32c0.74-1.75,2.1-3,3.27-3a0.84,0.84,0,0,1,1,.88,3.23,3.23,0,0,1,0,.44l-0.34,2.9,0.25-.41c1.73-2.85,2.67-3.8,3.86-3.8a0.89,0.89,0,0,1,1.08.81,2.11,2.11,0,0,1-.46,1.1,1.09,1.09,0,0,1-.9.51,1.74,1.74,0,0,1-1.1-.55A28.11,28.11,0,0,0,158.29,130.87Z"/><path class="cls-1" d="M172.61,135.91l2-3.41h0.62l-0.74,3.61a11.57,11.57,0,0,1-4.65,1.08c-3.71,0-5.57-2.09-5.57-6.26a10.46,10.46,0,0,1,2.95-7.64,6.94,6.94,0,0,1,5.34-1.91,13,13,0,0,1,3.73.53l-0.51,3.59h-0.64l-0.78-3.06a7.46,7.46,0,0,0-1,0c-2.32,0-3.68.53-4.86,1.89a10.32,10.32,0,0,0-2.16,6.63c0,3.52,1.43,5.15,4.53,5.15A7.33,7.33,0,0,0,172.61,135.91Z"/><path class="cls-1" d="M186.15,126.15l-1.22,9.13v0.21a0.27,0.27,0,0,0,.16.25l0.12,0.11,1.79-1.93,0.37,0.35a6.83,6.83,0,0,1-1.89,2.37,2.32,2.32,0,0,1-1.5.55,0.81,0.81,0,0,1-1-.81,3.16,3.16,0,0,1,0-.41l0.28-2.19-0.23.3a11.34,11.34,0,0,1-2,2.19,3.24,3.24,0,0,1-2,.92c-1.31,0-2.07-1.24-2.07-3.41,0-4.65,2.81-7.94,6.77-7.94A12.53,12.53,0,0,1,186.15,126.15Zm-2,.87a3.72,3.72,0,0,0-1.38-.25c-1.54,0-2.67,1-3.24,2.81a16.07,16.07,0,0,0-.6,4.3c0,1.38.18,1.93,0.71,1.93,0.37,0,.51-0.09,2.07-1.31,1-.81,1.13-0.9,1.63-1.31Z"/><path class="cls-1" d="M191.73,130.87L191,137h-1.7l1-9.16a0.25,0.25,0,0,0,0-.12,0.41,0.41,0,0,0-.14-0.32l-0.12-.14-1.79,2-0.37-.32c0.74-1.75,2.09-3,3.27-3a0.84,0.84,0,0,1,1,.88,3.09,3.09,0,0,1,0,.44l-0.34,2.9,0.25-.41c1.73-2.85,2.67-3.8,3.87-3.8a0.88,0.88,0,0,1,1.08.81,2.1,2.1,0,0,1-.46,1.1,1.08,1.08,0,0,1-.9.51,1.74,1.74,0,0,1-1.1-.55A28,28,0,0,0,191.73,130.87Z"/><path class="cls-1" d="M203.47,134.37l0.42,0.53c-1.45,1.52-2.81,2.3-4,2.3-1.87,0-3-1.5-3-4,0-4,2.53-7.34,5.61-7.34a1.88,1.88,0,0,1,2.07,1.93,3.06,3.06,0,0,1-1.66,2.71,9.9,9.9,0,0,1-4.07.94c0,0.51,0,.71,0,1,0,2.23.6,3.38,1.75,3.38A5.54,5.54,0,0,0,203.47,134.37Zm-4.56-3.54a7.35,7.35,0,0,0,2.74-.76,2.33,2.33,0,0,0,1.08-2.07,1.07,1.07,0,0,0-1.13-1.22C200.2,126.77,199.17,128.34,198.91,130.82Z"/><path class="cls-1" d="M210.14,142.27c-1.37,0-1.58-.76-1.58-1.21a1.4,1.4,0,0,1,1.28-1.4,1.89,1.89,0,0,1,1.49,1.23c1-.63,1.55-1.67,1.72-3.46L214,127h-2l0.12-1.23h2l0.13-1.36a3.75,3.75,0,0,1,1.49-3,5.63,5.63,0,0,1,3.2-.95c2,0,2.25.82,2.25,1.3a1.33,1.33,0,0,1-1.28,1.3,1.59,1.59,0,0,1-1.25-.71l-0.42-.6-0.1-.13c-1.22.15-1.68,0.83-1.85,2.71l-0.14,1.4h2.88L218.94,127h-2.85l-0.79,8.1c-0.28,2.9-.62,4.06-1.48,5.21A4.54,4.54,0,0,1,210.14,142.27Z"/><path class="cls-1" d="M215.94,126.89l-0.8,8.24c-0.28,2.83-.6,4-1.45,5.13a4.41,4.41,0,0,1-3.54,1.86c-0.94,0-1.43-.37-1.43-1.06a1.24,1.24,0,0,1,1.13-1.24,1.88,1.88,0,0,1,1.42,1.29c1.17-.64,1.75-1.73,1.93-3.66l1-10.56h-2l0.09-.92h2l0.14-1.5a3.6,3.6,0,0,1,1.43-2.85,5.5,5.5,0,0,1,3.11-.92c1.36,0,2.09.41,2.09,1.15a1.18,1.18,0,0,1-1.13,1.15,1.45,1.45,0,0,1-1.13-.64l-0.41-.6-0.16-.21c-1.36.14-1.89,0.85-2.07,2.85L216,126h2.88l-0.09.92h-2.85Z"/><path class="cls-1" d="M222.88,137.47c-2.29,0-3.65-1.81-3.65-4.85a7.65,7.65,0,0,1,0-1c0.43-3.53,2.64-6,5.37-6,2.33,0,3.72,1.79,3.72,4.78C228.37,134.35,226,137.47,222.88,137.47Zm1.56-10.77c-1.78,0-3,2.63-3,6.54a7.34,7.34,0,0,0,0,1c0.11,1.37.69,2.12,1.64,2.12s1.9-.88,2.41-2.63a13.44,13.44,0,0,0,.59-3.75C226.16,128.48,225.86,126.7,224.45,126.7Z"/><path class="cls-1" d="M219.43,131.6c0.41-3.43,2.58-5.87,5.22-5.87,2.23,0,3.57,1.73,3.57,4.62,0,3.89-2.35,6.95-5.34,6.95-2.19,0-3.5-1.77-3.5-4.69A7.33,7.33,0,0,1,219.43,131.6Zm1.93,2.65c0.12,1.45.76,2.25,1.79,2.25s2-.92,2.55-2.74a13.53,13.53,0,0,0,.6-3.8c0-2.25-.64-3.43-1.87-3.43-1.89,0-3.13,2.69-3.13,6.7A7.64,7.64,0,0,0,221.36,134.25Z"/><path class="cls-1" d="M231.5,137.12l1.06-9.36v0a0.28,0.28,0,0,0-.09-0.26h0l-1.78,1.94-0.57-.49,0-.1c0.77-1.83,2.17-3.11,3.41-3.11a1,1,0,0,1,1.12,1,3.07,3.07,0,0,1,0,.43l-0.27,2.23c1.7-2.78,2.66-3.68,3.88-3.68a1,1,0,0,1,1.24,1,2.26,2.26,0,0,1-.49,1.2,1.24,1.24,0,0,1-1,.57,1.76,1.76,0,0,1-1.1-.5,28.6,28.6,0,0,0-2.68,3l-0.7,6.19h-2Z"/><path class="cls-1" d="M234.07,130.87l-0.69,6.1h-1.7l1-9.16a0.25,0.25,0,0,0,0-.12,0.42,0.42,0,0,0-.14-0.32l-0.11-.14-1.79,2-0.37-.32c0.74-1.75,2.09-3,3.27-3a0.84,0.84,0,0,1,1,.88,3.08,3.08,0,0,1,0,.44l-0.35,2.9,0.25-.41c1.72-2.85,2.67-3.8,3.86-3.8a0.89,0.89,0,0,1,1.08.81,2.12,2.12,0,0,1-.46,1.1,1.08,1.08,0,0,1-.9.51,1.74,1.74,0,0,1-1.1-.55A28,28,0,0,0,234.07,130.87Z"/><path class="cls-1" d="M244,142.27a1.32,1.32,0,0,1-1.56-1.19,1.36,1.36,0,0,1,1.26-1.42,1.59,1.59,0,0,1,1.32.93,5.52,5.52,0,0,0,1.54-1.69c0.37-.55.83-1.26,1.17-1.81l0.08-.15L246,127.75a0.34,0.34,0,0,0-.11-0.24l-1.24,1.66-0.62-.4,0-.12c0.86-2.18,1.66-3.07,2.74-3.07,0.8,0,1,.41,1.25,1.57l0.48,2.44c0.37,2,.63,3.56.8,4.73l1-2.21,0.94-2.16c0.2-.43.34-0.78,0.45-1l0.17-.39a1.38,1.38,0,0,1,.07-0.21,2.65,2.65,0,0,1-.53-1.47,1.27,1.27,0,0,1,1.46-1.28,1.09,1.09,0,0,1,1.26,1.12,5,5,0,0,1-.71,2c-0.83,1.78-2.57,5.21-3.57,7a47.85,47.85,0,0,1-2.52,4.29,6.58,6.58,0,0,1-1.46,1.55A3.07,3.07,0,0,1,244,142.27Z"/><path class="cls-1" d="M248,137l-1.89-9.25a0.48,0.48,0,0,0-.3-0.41L244.56,129l-0.39-.25c0.83-2.09,1.59-3,2.6-3,0.67,0,.87.28,1.1,1.45l0.48,2.44c0.34,1.86.69,3.84,0.87,5.25l0.21-.46,1-2.23L251.4,130c0.34-.76.53-1.24,0.62-1.43a1.08,1.08,0,0,1,.09-0.28,2.56,2.56,0,0,1-.55-1.45,1.12,1.12,0,0,1,1.31-1.13,0.94,0.94,0,0,1,1.11,1,4.92,4.92,0,0,1-.69,2c-0.85,1.82-2.58,5.22-3.57,7a46.89,46.89,0,0,1-2.51,4.28,6.44,6.44,0,0,1-1.42,1.52,2.92,2.92,0,0,1-1.77.62,1.17,1.17,0,0,1-1.4-1,1.21,1.21,0,0,1,1.1-1.27,1.54,1.54,0,0,1,1.27,1A5.25,5.25,0,0,0,246.7,139c0.37-.55.83-1.27,1.17-1.82Z"/><path class="cls-1" d="M258.73,137.47c-2.29,0-3.65-1.81-3.65-4.85a7.65,7.65,0,0,1,0-1c0.43-3.53,2.64-6,5.38-6,2.33,0,3.72,1.79,3.72,4.78C264.22,134.35,261.81,137.47,258.73,137.47Zm1.57-10.77c-1.78,0-3,2.63-3,6.54a7.34,7.34,0,0,0,0,1c0.11,1.37.69,2.12,1.64,2.12s1.9-.88,2.41-2.63A13.43,13.43,0,0,0,262,130C262,128.48,261.71,126.7,260.29,126.7Z"/><path class="cls-1" d="M255.28,131.6c0.41-3.43,2.58-5.87,5.22-5.87,2.23,0,3.57,1.73,3.57,4.62,0,3.89-2.35,6.95-5.34,6.95-2.19,0-3.5-1.77-3.5-4.69A7.33,7.33,0,0,1,255.28,131.6Zm1.93,2.65c0.12,1.45.76,2.25,1.8,2.25s2-.92,2.55-2.74a13.56,13.56,0,0,0,.6-3.8c0-2.25-.64-3.43-1.86-3.43-1.89,0-3.13,2.69-3.13,6.7A7.65,7.65,0,0,0,257.21,134.25Z"/><path class="cls-1" d="M273.54,137.35a1,1,0,0,1-1.12-1,3.65,3.65,0,0,1,0-.46l0.22-1.77c-1.55,2.14-3,3.19-4.3,3.19a1.32,1.32,0,0,1-1.56-1.3,3.65,3.65,0,0,1,0-.48l1.13-7.92v-0.09a0.21,0.21,0,0,0-.08-0.17l-1.81,1.86-0.56-.49,0-.1c0.79-1.76,2.25-3,3.48-3a0.89,0.89,0,0,1,1.05,1,4.39,4.39,0,0,1,0,.53l-1.13,8v0.19c0,0.31.09,0.33,0.24,0.33a2.4,2.4,0,0,0,1.31-.72c0.91-.75,1.07-0.88,2.23-1.93l0.17-.16,0.93-7h2.06l-1.27,9.49v0.12a0.25,0.25,0,0,0,.07.22l1.81-1.92,0.6,0.5-0.23.39C275.78,136.45,274.7,137.35,273.54,137.35Z"/><path class="cls-1" d="M273,132.92l0.92-6.95h1.75l-1.24,9.32v0.14a0.4,0.4,0,0,0,.16.37l0.07,0.07,1.82-1.93,0.39,0.32-0.16.28c-1.06,1.82-2.09,2.67-3.18,2.67a0.8,0.8,0,0,1-1-.81,3.43,3.43,0,0,1,0-.44l0.3-2.37-0.23.32c-1.56,2.21-3,3.29-4.3,3.29A1.17,1.17,0,0,1,267,136a3.49,3.49,0,0,1,0-.46l1.13-7.91v-0.12a0.37,0.37,0,0,0-.12-0.28l-0.11-.11L266.09,129l-0.37-.32c0.76-1.7,2.16-2.95,3.34-2.95a0.75,0.75,0,0,1,.9.83,4.25,4.25,0,0,1,0,.51l-1.13,8v0.21c0,0.34.11,0.48,0.39,0.48a2.45,2.45,0,0,0,1.4-.76c0.92-.76,1.08-0.9,2.23-1.93Z"/><path class="cls-1" d="M279.82,137.35a1.08,1.08,0,0,1-1.33-1.14,1.41,1.41,0,0,1,1.56-1.7,1.11,1.11,0,0,1,1.3,1.24A1.38,1.38,0,0,1,279.82,137.35Z"/><path class="cls-1" d="M280,134.67a1,1,0,0,1,1.15,1.08,1.23,1.23,0,0,1-1.38,1.45,0.94,0.94,0,0,1-1.17-1A1.27,1.27,0,0,1,280,134.67Z"/></svg>